<?xml version="1.0" encoding="UTF-8"?>
<svg version="1.1" xmlns="http://www.w3.org/2000/svg" width="109" height="57">
<path d="M0 0 C4.49991395 1.10375248 7.93371555 0.07748218 12.3125 -1.1875 C13.79155238 1.77060476 13.43440903 4.7672155 13.41015625 8.0078125 C13.4087413 8.71525604 13.40732635 9.42269958 13.40586853 10.15158081 C13.400266 12.41359669 13.38771318 14.67551398 13.375 16.9375 C13.36998532 18.47005065 13.36542236 20.00260286 13.36132812 21.53515625 C13.35029577 25.29430888 13.33302952 29.05338772 13.3125 32.8125 C12.39726562 32.80089844 11.48203125 32.78929687 10.5390625 32.77734375 C9.35054688 32.76832031 8.16203125 32.75929687 6.9375 32.75 C5.75414062 32.73839844 4.57078125 32.72679687 3.3515625 32.71484375 C0.39328479 32.59783407 0.39328479 32.59783407 -1.6875 33.8125 C-7.36612925 34.40307744 -11.85672672 34.10620905 -16.6875 30.8125 C-21.12271102 26.41334761 -22.83411715 22.7288167 -22.9375 16.5 C-22.85286302 10.07605294 -21.53120879 6.65620879 -16.9375 2.0625 C-10.85510383 -2.14838965 -6.5790813 -2.90703592 0 0 Z M-13.58203125 7.921875 C-16.04860058 12.14031865 -15.46144432 17.14948544 -14.6875 21.8125 C-12.87946596 24.88615786 -11.82710536 26.24269732 -8.6875 27.8125 C-4.68627908 28.18997367 -2.39153193 28.21927401 1.125 26.1875 C3.69291535 23.39947762 4.57045509 21.52272456 5.3125 17.8125 C5.10394336 12.8071407 3.33627933 9.7525761 0.3125 5.8125 C-4.53301314 3.38974343 -9.62573569 4.2307467 -13.58203125 7.921875 Z " fill="#D3D3DC" transform="translate(436.6875,50.1875)"/>
<path d="M0 0 C2.64 0 5.28 0 8 0 C8 10.89 8 21.78 8 33 C0 33 0 33 -2 32 C-3.33557985 32.66215457 -4.66860886 33.32946301 -6 34 C-11.61361521 34.78590613 -16.24456407 34.24234268 -21 31 C-25.43521102 26.60084761 -27.14661715 22.9163167 -27.25 16.6875 C-27.17896083 11.29562708 -26.51395514 7.52082387 -22.5703125 3.56640625 C-15.58921303 -2.56376319 -8.57738337 -1.22534048 0 0 Z M-19 10 C-20.20643566 13.61930698 -20.32268559 16.19231005 -20 20 C-17.97333762 23.70390021 -16.51955484 25.65363011 -13 28 C-8.96474486 28.44836168 -6.73235113 28.42313621 -3.1875 26.375 C0.31758109 22.56948339 1.05502674 19.56826209 0.875 14.4375 C-0.08508749 10.66572773 -1.30914136 8.77239981 -4 6 C-10.35140642 2.82429679 -14.58930856 5.4842921 -19 10 Z " fill="#DDDEE5" transform="translate(331,50)"/>
<path d="M0 0 C2.64 0 5.28 0 8 0 C8 10.89 8 21.78 8 33 C4.37 33 0.74 33 -3 33 C-4.485 33.495 -4.485 33.495 -6 34 C-11.69734689 34.56430864 -16.12785716 34.28586378 -21 31 C-25.80905392 25.92377642 -27.48894427 21.24527071 -27.31640625 14.34375 C-26.60207523 9.05240909 -24.26084096 5.19933652 -20.4375 1.5625 C-14.12700935 -2.48268631 -7.05255258 -1.20043448 0 0 Z M-18 9 C-20.27415594 12.72134608 -20.20703828 15.88375601 -19.55078125 20.06640625 C-18.71149195 23.01284741 -17.13891829 24.86108171 -15 27 C-11.85088521 28.57455739 -9.47991184 28.34799118 -6 28 C-2.52001484 25.99707521 -0.2931555 23.87946651 1 20 C1.3711875 14.98896872 1.11788946 12.00871501 -2 8 C-4.51049841 5.39984093 -5.79742587 5.02578216 -9.4375 4.5625 C-13.61907331 5.07602655 -15.1273824 5.96323282 -18 9 Z " fill="#DBDBE3" transform="translate(156,50)"/>
<path d="M0 0 C2.31 0 4.62 0 7 0 C7.06058594 0.98742188 7.12117188 1.97484375 7.18359375 2.9921875 C7.26738281 4.27351563 7.35117187 5.55484375 7.4375 6.875 C7.51871094 8.15117188 7.59992188 9.42734375 7.68359375 10.7421875 C7.79206027 13.88300152 7.79206027 13.88300152 9 16 C10.12148438 14.77023438 10.12148438 14.77023438 11.265625 13.515625 C12.26036773 12.42703861 13.25516213 11.33849945 14.25 10.25 C14.74113281 9.71117187 15.23226563 9.17234375 15.73828125 8.6171875 C16.70597979 7.55917043 17.67760012 6.50472552 18.65332031 5.45410156 C19.82398853 4.19005155 20.97619808 2.90895509 22.125 1.625 C24 0 24 0 27.75 -0.25 C28.8225 -0.1675 29.895 -0.085 31 0 C30.4311005 3.63775172 29.11627527 5.16115582 26.4375 7.625 C21.81111169 12.05897071 17.90569774 16.93090293 14 22 C21.45905145 30.92753446 21.45905145 30.92753446 29.4375 39.375 C31 41 31 41 31 43 C27.02735412 43.56824564 23.48651094 43.99470784 20.03857422 41.6875 C18.21162402 39.87219933 16.5652047 37.99562375 14.9375 36 C14.35806641 35.33226562 13.77863281 34.66453125 13.18164062 33.9765625 C11.7648162 32.33726151 10.37912079 30.67114482 9 29 C7.12175109 30.87824891 7.60897603 34.03935276 7.4375 36.5625 C7.31181641 38.35880859 7.31181641 38.35880859 7.18359375 40.19140625 C7.12300781 41.11824219 7.06242187 42.04507813 7 43 C4.69 43 2.38 43 0 43 C0 28.81 0 14.62 0 0 Z " fill="#D7D8E0" transform="translate(270,40)"/>
<path d="M0 0 C2.31 0 4.62 0 7 0 C7.66 6.93 8.32 13.86 9 21 C13.67241928 16.66553751 13.67241928 16.66553751 15.48828125 13.734375 C17 12 17 12 19.48046875 11.390625 C20.37378906 11.34421875 21.26710938 11.2978125 22.1875 11.25 C23.08855469 11.19328125 23.98960937 11.1365625 24.91796875 11.078125 C25.94857422 11.03945313 25.94857422 11.03945313 27 11 C27.33 11.99 27.66 12.98 28 14 C27.27425781 14.391875 26.54851562 14.78375 25.80078125 15.1875 C22.74683915 17.16383073 20.61355938 19.29633184 18.1875 22 C17.39730469 22.86625 16.60710937 23.7325 15.79296875 24.625 C13.69874132 26.90308689 13.69874132 26.90308689 14 30 C17.95149936 35.35558542 22.75441583 39.93467227 28 44 C26 46 26 46 24.08203125 46.2578125 C20.26918542 46.03468555 17.84647857 45.72912941 14.88671875 43.1796875 C13.15484706 41.17889163 11.5514564 39.14248741 10 37 C9.67 36.67 9.34 36.34 9 36 C8.34 39.3 7.68 42.6 7 46 C4.69 46 2.38 46 0 46 C-0.94205985 43.17382044 -1.09846177 41.61949582 -1.02172852 38.7121582 C-1.00163223 37.85149246 -0.98153595 36.99082672 -0.96083069 36.1040802 C-0.93379562 35.17899155 -0.90676056 34.25390289 -0.87890625 33.30078125 C-0.85529526 32.35059616 -0.83168427 31.40041107 -0.80735779 30.4214325 C-0.73075165 27.38496854 -0.64671397 24.34876157 -0.5625 21.3125 C-0.50927627 19.25456989 -0.45653589 17.19662722 -0.40429688 15.13867188 C-0.27514055 10.09228501 -0.13931868 5.04611612 0 0 Z " fill="#F4F4F7" transform="translate(385,38)"/>
<path d="M0 0 C2.31 0 4.62 0 7 0 C7.33 4.29 7.66 8.58 8 13 C9.65 12.34 11.3 11.68 13 11 C17.70927843 10.29565575 21.11884031 10.54310238 25.375 12.75 C30.80911852 17.40781588 30.80911852 17.40781588 31.34057617 21.84082031 C31.32486572 22.90913086 31.30915527 23.97744141 31.29296875 25.078125 C31.28330078 26.23828125 31.27363281 27.3984375 31.26367188 28.59375 C31.23853516 29.8003125 31.21339844 31.006875 31.1875 32.25 C31.16719727 34.08304688 31.16719727 34.08304688 31.14648438 35.953125 C31.1111398 38.96919498 31.0617956 41.98437487 31 45 C28.69 45 26.38 45 24 45 C23.9906543 44.32420898 23.98130859 43.64841797 23.97167969 42.95214844 C23.91792699 39.8840289 23.83429008 36.81742613 23.75 33.75 C23.73582031 32.68652344 23.72164062 31.62304688 23.70703125 30.52734375 C23.67480469 29.50253906 23.64257812 28.47773437 23.609375 27.421875 C23.58842773 26.47924805 23.56748047 25.53662109 23.54589844 24.56542969 C22.84268193 21.2606895 21.64810515 20.04674734 19 18 C14.28765524 17.39097771 14.28765524 17.39097771 10.125 19.3125 C8.06037111 22.40944334 7.83694992 25.27189472 7.68359375 28.88671875 C7.64169922 29.82451172 7.59980469 30.76230469 7.55664062 31.72851562 C7.51732422 32.70498047 7.47800781 33.68144531 7.4375 34.6875 C7.39431641 35.67556641 7.35113281 36.66363281 7.30664062 37.68164062 C7.20058346 40.12095546 7.09852286 42.56037113 7 45 C4.69 45 2.38 45 0 45 C0 30.15 0 15.3 0 0 Z " fill="#E3E4EB" transform="translate(203,38)"/>
<path d="M0 0 C4.87657131 1.71565798 7.75096508 4.36289588 10 9 C10.34057617 11.86254883 10.34057617 11.86254883 10.29296875 14.95703125 C10.2784668 16.62475586 10.2784668 16.62475586 10.26367188 18.32617188 C10.23853516 19.47666016 10.21339844 20.62714844 10.1875 21.8125 C10.16719727 23.56723633 10.16719727 23.56723633 10.14648438 25.35742188 C10.11120278 28.238752 10.0619028 31.11913904 10 34 C7.69 34 5.38 34 3 34 C2.97494385 33.39003174 2.9498877 32.78006348 2.92407227 32.15161133 C2.8075942 29.37172102 2.68510368 26.5921266 2.5625 23.8125 C2.52318359 22.85279297 2.48386719 21.89308594 2.44335938 20.90429688 C2.40146484 19.97294922 2.35957031 19.04160156 2.31640625 18.08203125 C2.27974854 17.22843018 2.24309082 16.3748291 2.20532227 15.49536133 C1.99468906 12.93545406 1.55158464 10.50666757 1 8 C-2.59264452 6.80245183 -5.22717474 6.66905042 -9 7 C-11.65312125 9.04113619 -12.84267044 10.26063549 -13.54589844 13.56542969 C-13.5668457 14.50805664 -13.58779297 15.45068359 -13.609375 16.421875 C-13.64160156 17.44667969 -13.67382812 18.47148438 -13.70703125 19.52734375 C-13.72830078 21.12255859 -13.72830078 21.12255859 -13.75 22.75 C-13.77964844 23.82894531 -13.80929687 24.90789062 -13.83984375 26.01953125 C-13.91046936 28.67976244 -13.96320196 31.33912102 -14 34 C-16.64 34 -19.28 34 -22 34 C-22.02906612 29.43751341 -22.04682113 24.8750507 -22.0625 20.3125 C-22.07087891 19.01892578 -22.07925781 17.72535156 -22.08789062 16.39257812 C-22.09111328 15.14541016 -22.09433594 13.89824219 -22.09765625 12.61328125 C-22.10551147 10.89298706 -22.10551147 10.89298706 -22.11352539 9.13793945 C-22.01075807 6.29736223 -21.65316416 3.75956208 -21 1 C-19.95199219 1.01740234 -19.95199219 1.01740234 -18.8828125 1.03515625 C-17.97273438 1.04417969 -17.06265625 1.05320313 -16.125 1.0625 C-14.76761719 1.07990234 -14.76761719 1.07990234 -13.3828125 1.09765625 C-8.71926392 0.90652721 -4.97368205 -0.58609674 0 0 Z " fill="#D0D1DA" transform="translate(368,49)"/>
<path d="M0 0 C3.53254486 2.60735454 4.22677431 4.82050213 5.625 8.9375 C2.265 11.9375 2.265 11.9375 -0.5 11.9375 C-3.16866778 10.51421052 -3.5107687 8.74625171 -4.375 5.9375 C-6.685 5.9375 -8.995 5.9375 -11.375 5.9375 C-11.705 7.5875 -12.035 9.2375 -12.375 10.9375 C-11.32699219 11.32421875 -10.27898437 11.7109375 -9.19921875 12.109375 C-7.82006482 12.63476697 -6.44117202 13.16084476 -5.0625 13.6875 C-4.37220703 13.94015625 -3.68191406 14.1928125 -2.97070312 14.453125 C0.95461406 15.9701558 3.61164384 17.15029474 5.625 20.9375 C6.15366286 23.97731143 6.23195589 25.93520886 4.60546875 28.62109375 C2.4396781 31.34959738 0.96101196 32.82549601 -2.375 33.9375 C-9.25252449 34.6709423 -13.75885784 34.03260366 -19.375 29.9375 C-21.5269437 26.70958445 -21.57586443 25.65349191 -21.375 21.9375 C-18.0625 21.625 -18.0625 21.625 -14.375 21.9375 C-13.900625 22.7625 -13.42625 23.5875 -12.9375 24.4375 C-12.421875 25.2625 -11.90625 26.0875 -11.375 26.9375 C-8.58655165 27.41153622 -6.22642057 27.171223 -3.375 26.9375 C-3.045 25.6175 -2.715 24.2975 -2.375 22.9375 C-2.931875 22.69515625 -3.48875 22.4528125 -4.0625 22.203125 C-18.41114458 15.90135542 -18.41114458 15.90135542 -21.375 12.9375 C-21.90298419 9.06561595 -21.50212834 7.18233976 -19.6875 3.6875 C-14.58427814 -2.38119627 -7.17989674 -2.26033786 0 0 Z " fill="#D4D5DE" transform="translate(191.375,50.0625)"/>
<path d="M0 0 C1.4540625 0.0309375 1.4540625 0.0309375 2.9375 0.0625 C2.30421475 7.69541399 0.66913424 14.88310843 -1.1875 22.3046875 C-1.64793701 24.17267502 -1.64793701 24.17267502 -2.11767578 26.07839966 C-2.76315781 28.69636265 -3.41227113 31.31338566 -4.06445312 33.9296875 C-4.89981861 37.28087013 -5.72908924 40.63352115 -6.55606079 43.98678398 C-7.92503912 49.53667155 -9.29794277 55.08560178 -10.6796875 60.63232422 C-10.92315918 61.61111542 -11.16663086 62.58990662 -11.41748047 63.59835815 C-11.89915807 65.43849147 -12.46099323 67.25797969 -13.0625 69.0625 C-15.3725 69.0625 -17.6825 69.0625 -20.0625 69.0625 C-19.43705888 61.23818958 -17.67483807 53.90278205 -15.71875 46.3125 C-15.38584277 45.0050732 -15.05337145 43.69753533 -14.72131348 42.38989258 C-14.02908405 39.66926635 -13.33279417 36.94972448 -12.63330078 34.23095703 C-11.73558861 30.74106125 -10.84646694 27.24904611 -9.96009064 23.7562561 C-9.27654806 21.06535138 -8.58945533 18.37536379 -7.90116882 15.68566895 C-7.41161497 13.77098284 -6.92436151 11.85570904 -6.43713379 9.94042969 C-6.14012573 8.78833008 -5.84311768 7.63623047 -5.53710938 6.44921875 C-5.2758728 5.43045654 -5.01463623 4.41169434 -4.7454834 3.36206055 C-3.72753766 -0.06529636 -3.72768872 0.07607528 0 0 Z " fill="#F1A218" transform="translate(260.0625,24.9375)"/>
<path d="M0 0 C3.07297314 -0.00322791 5.15452367 -0.00116121 8 1 C10.14077255 3.402439 11.27013863 6.11133677 12.5 9.0625 C12.84546875 9.82111328 13.1909375 10.57972656 13.546875 11.36132812 C14.39240305 13.22853589 15.20002569 15.11282655 16 17 C16.66 17 17.32 17 18 17 C20.64 11.72 23.28 6.44 26 1 C28.64 1 31.28 1 34 1 C32.72955023 4.29989786 31.32152221 7.42277219 29.65234375 10.5390625 C29.21212891 11.36664063 28.77191406 12.19421875 28.31835938 13.046875 C27.86267578 13.89765625 27.40699219 14.7484375 26.9375 15.625 C26.02783946 17.32439389 25.12019727 19.02487014 24.21484375 20.7265625 C23.61337524 21.84925537 23.61337524 21.84925537 22.99975586 22.99462891 C21.00667502 26.99247164 20.9205307 30.08945406 21 34.5 C21.11111111 40.66666667 21.11111111 40.66666667 20 44 C16.535 43.505 16.535 43.505 13 43 C13.06703125 42.03964844 13.1340625 41.07929687 13.203125 40.08984375 C13.55189908 26.50618871 7.87003658 16.65858161 1.08569336 5.18212891 C0 3 0 3 0 0 Z " fill="#D5D6DF" transform="translate(93,40)"/>
<path d="M0 0 C2.64 0 5.28 0 8 0 C8 14.85 8 29.7 8 45 C2 46 2 46 0 45 C0 30.15 0 15.3 0 0 Z " fill="#D6D6E0" transform="translate(456,38)"/>
<path d="M0 0 C4.96846865 1.37293451 7.2674912 3.87563407 10.68359375 7.59765625 C11.27205078 8.21318359 11.86050781 8.82871094 12.46679688 9.46289062 C13.90731239 10.97367519 15.32869624 12.5026618 16.74609375 14.03515625 C15.13682982 17.97411039 12.44051467 20.74271282 9.49609375 23.72265625 C8.79806641 24.46999023 8.79806641 24.46999023 8.0859375 25.23242188 C4.80787722 28.56014973 2.42154379 29.85180527 -2.25390625 30.03515625 C-4.62890625 29.09765625 -4.62890625 29.09765625 -6.25390625 28.03515625 C-5.26390625 27.70515625 -4.27390625 27.37515625 -3.25390625 27.03515625 C-2.57820792 25.70637711 -1.91283799 24.37232908 -1.25390625 23.03515625 C0.65625 21.18359375 0.65625 21.18359375 2.80859375 19.41015625 C5.72485087 17.08030073 5.72485087 17.08030073 7.74609375 14.03515625 C7.194375 13.81085937 6.64265625 13.5865625 6.07421875 13.35546875 C3.03397631 11.63130442 0.93183702 9.40999803 -1.50390625 6.91015625 C-2.3959375 6.00007813 -3.28796875 5.09 -4.20703125 4.15234375 C-4.8825 3.45367187 -5.55796875 2.755 -6.25390625 2.03515625 C-3.25390625 0.03515625 -3.25390625 0.03515625 0 0 Z " fill="#C08422" transform="translate(478.25390625,45.96484375)"/>
<path d="M0 0 C-3.80014774 4.554787 -7.65665546 8.95279259 -12 13 C-12.66 13 -13.32 13 -14 13 C-14 13.66 -14 14.32 -14 15 C-13.44828125 15.22429688 -12.8965625 15.44859375 -12.328125 15.6796875 C-9.28788256 17.40385183 -7.18574327 19.62515822 -4.75 22.125 C-3.85796875 23.03507812 -2.9659375 23.94515625 -2.046875 24.8828125 C-1.37140625 25.58148438 -0.6959375 26.28015625 0 27 C-2 29 -2 29 -4.6328125 29.5625 C-9.73772337 28.70970747 -12.30872658 25.58009619 -15.875 22 C-16.56335938 21.33226563 -17.25171875 20.66453125 -17.9609375 19.9765625 C-19.65403078 18.33049959 -21.3325137 16.67193293 -23 15 C-21.13057651 10.87481285 -18.33803464 8.28445301 -15 5.3125 C-14.4534375 4.81427734 -13.906875 4.31605469 -13.34375 3.80273438 C-8.29782805 -0.75467307 -6.72998352 -1.12166392 0 0 Z " fill="#F5A514" transform="translate(86,47)"/>
<path d="M0 0 C1.4540625 0.0309375 1.4540625 0.0309375 2.9375 0.0625 C2.30374893 7.62740197 0.70515871 14.7661484 -1.125 22.125 C-1.54749023 23.85266602 -1.54749023 23.85266602 -1.97851562 25.61523438 C-2.66816181 28.4322637 -3.36292667 31.24792267 -4.0625 34.0625 C-4.3925 34.0625 -4.7225 34.0625 -5.0625 34.0625 C-5.08938151 32.41675434 -5.10884123 30.77088587 -5.125 29.125 C-5.13660156 28.20847656 -5.14820313 27.29195312 -5.16015625 26.34765625 C-5.0625 24.0625 -5.0625 24.0625 -4.0625 23.0625 C-3.83057135 21.54780552 -3.65034762 20.02495438 -3.5 18.5 C-3.41621094 17.67371094 -3.33242188 16.84742187 -3.24609375 15.99609375 C-3.18550781 15.35800781 -3.12492187 14.71992187 -3.0625 14.0625 C-3.3925 14.0625 -3.7225 14.0625 -4.0625 14.0625 C-4.3925 16.3725 -4.7225 18.6825 -5.0625 21.0625 C-5.7225 21.0625 -6.3825 21.0625 -7.0625 21.0625 C-7.0625 21.7225 -7.0625 22.3825 -7.0625 23.0625 C-7.7225 23.0625 -8.3825 23.0625 -9.0625 23.0625 C-5.28853771 0.10792934 -5.28853771 0.10792934 0 0 Z " fill="#F8A30F" transform="translate(260.0625,24.9375)"/>
<path d="M0 0 C4.16795999 3.40695606 7.6422191 6.775695 11 11 C12.94197372 12.75404078 14.95023404 14.36950435 17 16 C15 18 15 18 13.08203125 18.2578125 C9.26918542 18.03468555 6.84647857 17.72912941 3.88671875 15.1796875 C2.15484706 13.17889163 0.5514564 11.14248741 -1 9 C-1.33 8.67 -1.66 8.34 -2 8 C-2.66 11.3 -3.32 14.6 -4 18 C-4.33 18 -4.66 18 -5 18 C-5 13.05 -5 8.1 -5 3 C-3.68 3.33 -2.36 3.66 -1 4 C-0.67 2.68 -0.34 1.36 0 0 Z " fill="#BCBCCA" transform="translate(396,66)"/>
<path d="M0 0 C2.31 0 4.62 0 7 0 C7.66 6.93 8.32 13.86 9 21 C10.65 19.35 12.3 17.7 14 16 C14.66 15.67 15.32 15.34 16 15 C15.61529545 17.47686489 15.32719638 18.70314514 13.44140625 20.4140625 C12.82136719 20.81367187 12.20132812 21.21328125 11.5625 21.625 C9.4501657 23.00970349 7.79992193 24.20007807 6 26 C6 17.75 6 9.5 6 1 C4.35 1 2.7 1 1 1 C1.33 15.85 1.66 30.7 2 46 C1.01 45.67 0.02 45.34 -1 45 C-0.67 30.15 -0.34 15.3 0 0 Z " fill="#727299" transform="translate(385,38)"/>
<path d="M0 0 C0.33 0 0.66 0 1 0 C1.27246347 5.72173287 0.9103466 9.93891294 -1.07421875 15.28125 C-2.28057495 18.82396694 -3.17304981 22.43057838 -4.0625 26.0625 C-4.22459961 26.7232251 -4.38669922 27.3839502 -4.55371094 28.06469727 C-4.87292379 29.37117139 -5.19113181 30.67789146 -5.50830078 31.98486328 C-6.32379715 35.32702167 -7.1630023 38.66316915 -8 42 C-6.68 42 -5.36 42 -4 42 C-3.34 39.36 -2.68 36.72 -2 34 C-0.89808099 38.40767604 -1.41293158 39.8922935 -3 44 C-5.31 44 -7.62 44 -10 44 C-9.43575329 37.96490042 -8.49321704 32.31542818 -6.93359375 26.46484375 C-6.73524429 25.70071671 -6.53689484 24.93658966 -6.33253479 24.14930725 C-5.70670419 21.74379929 -5.07227457 19.34066141 -4.4375 16.9375 C-4.00788905 15.29246763 -3.57884752 13.64728645 -3.15039062 12.00195312 C-2.10682486 7.99955422 -1.05554878 3.99925456 0 0 Z " fill="#764E2E" transform="translate(250,50)"/>
<path d="M0 0 C0.66 0 1.32 0 2 0 C1.35194035 5.27575317 -0.7561532 7.36263369 -4.72265625 10.68359375 C-7.31957209 12.18472692 -8.56028198 12.32003015 -11.5 11.9375 C-12.655 11.628125 -13.81 11.31875 -15 11 C-14.67 10.34 -14.34 9.68 -14 9 C-13.34 9 -12.68 9 -12 9 C-11.773125 8.4225 -11.54625 7.845 -11.3125 7.25 C-9.66961977 4.4336339 -7.60466773 2.91922886 -5 1 C-4.67 1.66 -4.34 2.32 -4 3 C-2.68 3 -1.36 3 0 3 C0 2.01 0 1.02 0 0 Z " fill="#BF8220" transform="translate(487,64)"/>
<path d="M0 0 C2.97 0.495 2.97 0.495 6 1 C4.68 1.33 3.36 1.66 2 2 C2.16749756 2.71115967 2.33499512 3.42231934 2.50756836 4.1550293 C3.01069136 7.0617682 3.02681307 9.57782898 2.87890625 12.51953125 C2.83056641 13.54111328 2.78222656 14.56269531 2.73242188 15.61523438 C2.67634766 16.67033203 2.62027344 17.72542969 2.5625 18.8125 C2.51029297 19.88693359 2.45808594 20.96136719 2.40429688 22.06835938 C2.2750247 24.71256304 2.14007564 27.35635027 2 30 C2.66 30.33 3.32 30.66 4 31 C3.34 31 2.68 31 2 31 C2 34.96 2 38.92 2 43 C1.34 43 0.68 43 0 43 C0 28.81 0 14.62 0 0 Z " fill="#B4B3C6" transform="translate(270,40)"/>
<path d="M0 0 C0.66 0.33 1.32 0.66 2 1 C0.515 2.485 0.515 2.485 -1 4 C0.89977566 8.43280987 3.32646327 11.23930149 7.75 13.25 C8.4925 13.4975 9.235 13.745 10 14 C10.33 12.68 10.66 11.36 11 10 C13.64 12.64 16.28 15.28 19 18 C17 20 17 20 14.3671875 20.5625 C9.26227663 19.70970747 6.69127342 16.58009619 3.125 13 C2.43664062 12.33226563 1.74828125 11.66453125 1.0390625 10.9765625 C-0.65403078 9.33049959 -2.3325137 7.67193293 -4 6 C-2.84826645 3.53199953 -1.95216435 1.95216435 0 0 Z " fill="#855A2B" transform="translate(67,56)"/>
<path d="M0 0 C-3.67832017 4.52615993 -7.41086363 8.39424999 -12 12 C-12 10.35 -12 8.7 -12 7 C-13.65 7.66 -15.3 8.32 -17 9 C-8.18043088 -1.73047576 -8.18043088 -1.73047576 0 0 Z " fill="#D28E1F" transform="translate(86,47)"/>
<path d="M0 0 C0.66 0 1.32 0 2 0 C1.40051206 5.43172405 0.52463536 10.64068526 -0.8125 15.9375 C-0.98555664 16.62972656 -1.15861328 17.32195312 -1.33691406 18.03515625 C-2.70950194 23.31776472 -4.55397283 28.10794566 -7 33 C-8.32 33 -9.64 33 -11 33 C-11.19622241 28.78121808 -10.80230168 25.82989106 -9 22 C-8.67 22 -8.34 22 -8 22 C-8 23.65 -8 25.3 -8 27 C-7.34 27 -6.68 27 -6 27 C-5.8659375 26.32453125 -5.731875 25.6490625 -5.59375 24.953125 C-4.90934784 21.5491248 -4.21099466 18.14855446 -3.5 14.75 C-3.2421875 13.50734375 -2.984375 12.2646875 -2.71875 10.984375 C-2 8 -2 8 -1 7 C-0.63239269 4.67182036 -0.29758419 2.3381615 0 0 Z " fill="#C08126" transform="translate(253,59)"/>
<path d="M0 0 C1.98 0 3.96 0 6 0 C6 10.89 6 21.78 6 33 C5.34 33 4.68 33 4 33 C3.67 23.43 3.34 13.86 3 4 C2.01 3.67 1.02 3.34 0 3 C0 2.01 0 1.02 0 0 Z " fill="#BCBCCC" transform="translate(333,50)"/>
<path d="M0 0 C2.31 0 4.62 0 7 0 C7.06058594 0.75925781 7.12117187 1.51851562 7.18359375 2.30078125 C7.26738281 3.29464844 7.35117188 4.28851563 7.4375 5.3125 C7.51871094 6.29863281 7.59992188 7.28476562 7.68359375 8.30078125 C7.91812559 11.09375599 7.91812559 11.09375599 9 14 C8.67 14.66 8.34 15.32 8 16 C7.34 16 6.68 16 6 16 C6 11.05 6 6.1 6 1 C4.35 1 2.7 1 1 1 C1 15.52 1 30.04 1 45 C0.67 45 0.34 45 0 45 C0 30.15 0 15.3 0 0 Z " fill="#6C6D8B" transform="translate(203,38)"/>
<path d="M0 0 C4.89566825 1.41061627 6.80421615 4.01745343 9.6875 8.0625 C8.76710938 7.58683594 8.76710938 7.58683594 7.828125 7.1015625 C5.77755979 6.10621515 3.90827983 5.53838139 1.6875 5.0625 C2.30625 5.990625 2.925 6.91875 3.5625 7.875 C5.625 10.96875 5.625 10.96875 7.6875 14.0625 C3.78464233 12.47582422 1.35229018 9.92899519 -1.5625 6.9375 C-2.45453125 6.02742188 -3.3465625 5.11734375 -4.265625 4.1796875 C-4.94109375 3.48101562 -5.6165625 2.78234375 -6.3125 2.0625 C-3.3125 0.0625 -3.3125 0.0625 0 0 Z " fill="#98692F" transform="translate(478.3125,45.9375)"/>
<path d="M0 0 C0.33 0 0.66 0 1 0 C1.28016473 5.8834594 0.84807429 10.27005358 -1.19921875 15.78125 C-2.40711755 19.12801351 -3.18208402 22.53958626 -4 26 C-4.33 26 -4.66 26 -5 26 C-5.32784311 19.95949073 -4.13093049 14.85891514 -2.5 9.0625 C-2.26152344 8.18787109 -2.02304688 7.31324219 -1.77734375 6.41210938 C-1.19273616 4.27244561 -0.60015656 2.13534428 0 0 Z " fill="#90622A" transform="translate(250,50)"/>
<path d="M0 0 C0.66 0 1.32 0 2 0 C1.37392048 5.79947349 0.32599062 11.33809831 -1.0625 17 C-1.24876953 17.77472656 -1.43503906 18.54945312 -1.62695312 19.34765625 C-2.08076178 21.23270759 -2.53982492 23.1164927 -3 25 C-3.33 25 -3.66 25 -4 25 C-4.32877755 19.05765017 -4.10283783 14.37998055 -1.734375 8.89453125 C-0.60031151 5.96888873 -0.32401636 3.11055702 0 0 Z " fill="#92642A" transform="translate(259,34)"/>
<path d="M0 0 C0.66 0.33 1.32 0.66 2 1 C0.02 3.97 0.02 3.97 -2 7 C-0.02 6.67 1.96 6.34 4 6 C2.5 8.0625 2.5 8.0625 0 10 C-2.82406647 10.05928384 -5.20225927 9.55954815 -8 9 C-7.67 8.34 -7.34 7.68 -7 7 C-6.34 7 -5.68 7 -5 7 C-4.731875 6.401875 -4.46375 5.80375 -4.1875 5.1875 C-3.01506533 3.02775192 -1.80630718 1.64209744 0 0 Z " fill="#7B573D" transform="translate(480,66)"/>
<path d="M0 0 C0.33 0 0.66 0 1 0 C1.27036084 5.27203646 0.26305335 9.92523206 -1 15 C-1.66 15 -2.32 15 -3 15 C-3.56229448 4.27475338 -3.56229448 4.27475338 0 0 Z " fill="#FAA40A" transform="translate(248,71)"/>
<path d="M0 0 C0.66 0.66 1.32 1.32 2 2 C1.68794085 6.75890208 1.03944563 10.64918266 -1 15 C-1.66 15 -2.32 15 -3 15 C-3 12.69 -3 10.38 -3 8 C-2.34 8 -1.68 8 -1 8 C-1.020625 6.865625 -1.04125 5.73125 -1.0625 4.5625 C-1 1 -1 1 0 0 Z " fill="#FCA208" transform="translate(256,38)"/>
<path d="M0 0 C1.4540625 0.0309375 1.4540625 0.0309375 2.9375 0.0625 C2.6075 3.0325 2.2775 6.0025 1.9375 9.0625 C1.6075 9.0625 1.2775 9.0625 0.9375 9.0625 C0.9375 7.0825 0.9375 5.1025 0.9375 3.0625 C-2.22365776 4.43233503 -3.0552092 5.0515638 -5.0625 8.0625 C-4.046875 0.08258929 -4.046875 0.08258929 0 0 Z " fill="#875D30" transform="translate(260.0625,24.9375)"/>
<path d="M0 0 C0 1.98 0 3.96 0 6 C-0.66 6 -1.32 6 -2 6 C-2 6.66 -2 7.32 -2 8 C-1.01 8.33 -0.02 8.66 1 9 C-0.32 9.33 -1.64 9.66 -3 10 C-3 8.02 -3 6.04 -3 4 C-4.32 4.33 -5.64 4.66 -7 5 C-2.25 0 -2.25 0 0 0 Z " fill="#D28B1D" transform="translate(74,54)"/>
<path d="M0 0 C1.98 0.66 3.96 1.32 6 2 C6 2.99 6 3.98 6 5 C6.99 5.33 7.98 5.66 9 6 C9 6.66 9 7.32 9 8 C6.75 7.875 6.75 7.875 4 7 C0 1.81081081 0 1.81081081 0 0 Z " fill="#F4A513" transform="translate(479,50)"/>
<path d="M0 0 C1.98 0 3.96 0 6 0 C6.66 1.32 7.32 2.64 8 4 C4.52176885 5.15941038 2.54104422 4.70820884 -1 4 C-0.67 2.68 -0.34 1.36 0 0 Z " fill="#FCFCFC" transform="translate(217,50)"/>
<path d="M0 0 C0.33 0 0.66 0 1 0 C1 3.96 1 7.92 1 12 C0.34 12 -0.32 12 -1 12 C-1 12.66 -1 13.32 -1 14 C-1.66 14 -2.32 14 -3 14 C-2.69024532 12.22868439 -2.37709575 10.45796222 -2.0625 8.6875 C-1.88847656 7.70136719 -1.71445313 6.71523438 -1.53515625 5.69921875 C-1 3 -1 3 0 0 Z " fill="#A57225" transform="translate(254,34)"/>
<path d="M0 0 C1.65 1.65 3.3 3.3 5 5 C3.02 5.99 1.04 6.98 -1 8 C-2.5 6.625 -2.5 6.625 -4 5 C-4 4.34 -4 3.68 -4 3 C-2.68 3.33 -1.36 3.66 0 4 C0 2.68 0 1.36 0 0 Z " fill="#B37725" transform="translate(77,66)"/>
<path d="M0 0 C0 0.66 0 1.32 0 2 C-1.98 2.99 -3.96 3.98 -6 5 C-6 3.68 -6 2.36 -6 1 C-7.98 1.66 -9.96 2.32 -12 3 C-11.67 2.01 -11.34 1.02 -11 0 C-9.54263913 -0.19491452 -8.08405407 -0.38069358 -6.625 -0.5625 C-5.81289063 -0.66691406 -5.00078125 -0.77132812 -4.1640625 -0.87890625 C-2 -1 -2 -1 0 0 Z " fill="#A8A9BC" transform="translate(413,50)"/>
<path d="M0 0 C1.98 0 3.96 0 6 0 C6.06058594 0.75925781 6.12117187 1.51851562 6.18359375 2.30078125 C6.26738281 3.29464844 6.35117188 4.28851563 6.4375 5.3125 C6.51871094 6.29863281 6.59992188 7.28476562 6.68359375 8.30078125 C6.91812559 11.09375599 6.91812559 11.09375599 8 14 C7.67 14.66 7.34 15.32 7 16 C6.34 16 5.68 16 5 16 C5 11.05 5 6.1 5 1 C3.35 1 1.7 1 0 1 C0 0.67 0 0.34 0 0 Z " fill="#8F8DA5" transform="translate(204,38)"/>
<path d="M0 0 C0.99 0 1.98 0 3 0 C2.125 4.875 2.125 4.875 1 6 C-0.66617115 6.04063832 -2.33388095 6.042721 -4 6 C-3.34 5.67 -2.68 5.34 -2 5 C-1.27840576 3.35636866 -0.60648579 1.68949614 0 0 Z " fill="#F4A31C" transform="translate(480,68)"/>
<path d="M0 0 C1.4783226 2.95664519 1.06032783 5.74229737 1 9 C0.01 9.495 0.01 9.495 -1 10 C-1 8.35 -1 6.7 -1 5 C-2.65 5.66 -4.3 6.32 -6 7 C-4.02 4.69 -2.04 2.38 0 0 Z " fill="#AA752A" transform="translate(75,49)"/>
<path d="M0 0 C0.99 0 1.98 0 3 0 C3 1.98 3 3.96 3 6 C2.34 6 1.68 6 1 6 C0.67 5.01 0.34 4.02 0 3 C-0.66 4.98 -1.32 6.96 -2 9 C-2.6875 7.3125 -2.6875 7.3125 -3 5 C-1.75 2.25 -1.75 2.25 0 0 Z " fill="#E9A126" transform="translate(258,28)"/>
<path d="M0 0 C0.66 0.33 1.32 0.66 2 1 C2.625 3.5625 2.625 3.5625 3 6 C0 6 0 6 -1.6875 4.5 C-2.120625 4.005 -2.55375 3.51 -3 3 C-2.67 2.34 -2.34 1.68 -2 1 C-1.34 1.33 -0.68 1.66 0 2 C0 1.34 0 0.68 0 0 Z " fill="#DE9512" transform="translate(75,64)"/>
<path d="M0 0 C1.32 0 2.64 0 4 0 C6.125 2.8125 6.125 2.8125 8 6 C8.99 7.485 8.99 7.485 10 9 C6.78956118 7.61811547 4.95063635 6.07578097 2.75 3.375 C2.22921875 2.74335937 1.7084375 2.11171875 1.171875 1.4609375 C0.78515625 0.97882812 0.3984375 0.49671875 0 0 Z " fill="#81501F" transform="translate(476,51)"/>
<path d="M0 0 C1.65 0 3.3 0 5 0 C3.92598892 2.91517292 3.22189824 4.77810176 1 7 C0.67 4.69 0.34 2.38 0 0 Z " fill="#C8CAD9" transform="translate(122,41)"/>
<path d="M0 0 C2.31 0 4.62 0 7 0 C7.33 0.66 7.66 1.32 8 2 C6.02 2 4.04 2 2 2 C2 3.65 2 5.3 2 7 C0 5 0 5 -0.125 2.375 C-0.08375 1.59125 -0.0425 0.8075 0 0 Z " fill="#8687A5" transform="translate(170,72)"/>
<path d="M0 0 C0.99 0 1.98 0 3 0 C2.67 1.65 2.34 3.3 2 5 C0.68 5 -0.64 5 -2 5 C-1.125 1.125 -1.125 1.125 0 0 Z " fill="#DD9520" transform="translate(485,62)"/>
<path d="M0 0 C2.64 0.33 5.28 0.66 8 1 C8 1.66 8 2.32 8 3 C7.01 3.495 7.01 3.495 6 4 C5.67 4.66 5.34 5.32 5 6 C3.35 4.02 1.7 2.04 0 0 Z " fill="#ECA127" transform="translate(67,63)"/>
<path d="M0 0 C1.093125 0.226875 2.18625 0.45375 3.3125 0.6875 C2.3225 2.1725 2.3225 2.1725 1.3125 3.6875 C0.6525 3.6875 -0.0075 3.6875 -0.6875 3.6875 C-0.6875 3.0275 -0.6875 2.3675 -0.6875 1.6875 C-2.6675 2.0175 -4.6475 2.3475 -6.6875 2.6875 C-4.58035839 -0.41123767 -3.86755884 -0.32775922 0 0 Z " fill="#907044" transform="translate(82.6875,46.3125)"/>
<path d="M0 0 C0.33 0.99 0.66 1.98 1 3 C-1.31 4.65 -3.62 6.3 -6 8 C-4.55746343 4.63408134 -2.66735273 2.48952921 0 0 Z " fill="#9B9BB7" transform="translate(400,53)"/>
<path d="M0 0 C2.64 0.33 5.28 0.66 8 1 C7.67 1.66 7.34 2.32 7 3 C5.35 2.67 3.7 2.34 2 2 C2.33 3.65 2.66 5.3 3 7 C1.68 5.35 0.36 3.7 -1 2 C-0.67 1.34 -0.34 0.68 0 0 Z " fill="#9A9ABA" transform="translate(93,40)"/>
<path d="M0 0 C0.66 0.33 1.32 0.66 2 1 C0.1875 4 0.1875 4 -2 7 C-2.99 7 -3.98 7 -5 7 C-3.70700306 4.11562221 -2.34058637 2.12780579 0 0 Z " fill="#855B28" transform="translate(480,66)"/>
</svg>
