<?xml version="1.0" encoding="UTF-8"?>
<svg version="1.1" xmlns="http://www.w3.org/2000/svg" width="109" height="57">
<path d="M0 0 C2.4375 1.6875 2.4375 1.6875 4 3 C4.33 1.35 4.66 -0.3 5 -2 C8.63 -2 12.26 -2 16 -2 C16.02464113 5.24487049 16.0428318 12.48971682 16.05493164 19.73461914 C16.05997356 22.20142033 16.06680691 24.66821852 16.07543945 27.13500977 C16.08751125 30.67204529 16.09322956 34.20904145 16.09765625 37.74609375 C16.10281754 38.85649521 16.10797882 39.96689667 16.11329651 41.11094666 C16.11337204 42.13192947 16.11344757 43.15291229 16.11352539 44.20483398 C16.115746 45.10862289 16.11796661 46.0124118 16.12025452 46.94358826 C16 49 16 49 15 50 C13.31391034 50.07205511 11.62499341 50.08386068 9.9375 50.0625 C9.01839844 50.05347656 8.09929687 50.04445312 7.15234375 50.03515625 C6.44207031 50.02355469 5.73179687 50.01195312 5 50 C4.505 48.02 4.505 48.02 4 46 C3.484375 46.268125 2.96875 46.53625 2.4375 46.8125 C1.2309375 47.4003125 1.2309375 47.4003125 0 48 C-0.99 48.53625 -1.98 49.0725 -3 49.625 C-8.97475962 52.10702006 -15.61550622 52.03842423 -21.75 50.15625 C-27.78897446 47.43134689 -32.59629019 43.73903294 -36 38 C-37.48908166 34.04861545 -38.36090158 30.16827905 -39 26 C-39.11472656 25.28714844 -39.22945312 24.57429688 -39.34765625 23.83984375 C-39.90287108 16.90677656 -36.43697682 10.25916075 -32.390625 4.84765625 C-24.01028491 -4.24385949 -10.80273289 -6.07653725 0 0 Z M-23 10 C-26.80371873 14.8468189 -28.40152205 19.53424986 -28.0625 25.6875 C-27.28363854 30.70053559 -26.17237498 34.01419554 -23 38 C-18.28114183 41.44681814 -13.86015034 42.74583732 -8 42 C-2.84454045 40.33976726 0.14908903 38.64592899 3 34 C5.125957 28.36621395 6.23152062 22.65462064 4.27734375 16.85546875 C2.01987569 11.92925302 -0.67595981 8.32961607 -5.875 6.25 C-12.47785143 5.47319395 -17.71225527 5.72785551 -23 10 Z M4 43 C5 45 5 45 5 45 Z " fill="#D7D7DF" transform="translate(230,129)"/>
<path d="M0 0 C0.99 0.33 1.98 0.66 3 1 C3.33 0.01 3.66 -0.98 4 -2 C7.63 -2 11.26 -2 15 -2 C15.02464113 5.24487049 15.0428318 12.48971682 15.05493164 19.73461914 C15.05997356 22.20142033 15.06680691 24.66821852 15.07543945 27.13500977 C15.08751125 30.67204529 15.09322956 34.20904145 15.09765625 37.74609375 C15.10281754 38.85649521 15.10797882 39.96689667 15.11329651 41.11094666 C15.11337204 42.13192947 15.11344757 43.15291229 15.11352539 44.20483398 C15.115746 45.10862289 15.11796661 46.0124118 15.12025452 46.94358826 C15 49 15 49 14 50 C12.31391034 50.07205511 10.62499341 50.08386068 8.9375 50.0625 C8.01839844 50.05347656 7.09929688 50.04445312 6.15234375 50.03515625 C5.44207031 50.02355469 4.73179687 50.01195312 4 50 C4 48.35 4 46.7 4 45 C3.35675781 45.433125 2.71351563 45.86625 2.05078125 46.3125 C-5.34139955 50.86802369 -11.36329557 52.41444787 -20 51 C-28.52057837 48.32411588 -33.26575981 43.37478431 -37.875 36 C-40.49659846 29.11830404 -40.16059389 19.52175045 -37.9375 12.5625 C-34.72715753 5.70879213 -29.61811037 0.34515756 -22.5234375 -2.37890625 C-14.51366669 -4.35035139 -7.40338826 -3.36517648 0 0 Z M-25.3125 11.5625 C-28.36769581 17.78604702 -29.73235321 23.4056634 -28.0625 30.25 C-26.31286082 35.23215641 -23.46522533 38.24982713 -19 41 C-13.97141801 42.676194 -9.65969589 42.60642735 -4.75 40.8125 C-0.26065993 37.85361677 2.61126757 34.20774663 4 29 C4.78345013 22.13887616 4.06151051 16.69137233 0 11 C-4.070686 7.03108115 -6.79404989 6.1664868 -12.3125 5.75 C-17.84973405 6.1254057 -21.55256757 7.39608839 -25.3125 11.5625 Z " fill="#E3E3E9" transform="translate(673,129)"/>
<path d="M0 0 C0.804375 0.391875 1.60875 0.78375 2.4375 1.1875 C2.953125 1.455625 3.46875 1.72375 4 2 C4 0.68 4 -0.64 4 -2 C7.63 -2 11.26 -2 15 -2 C15 15.16 15 32.32 15 50 C11.37 50 7.74 50 4 50 C3.505 48.02 3.505 48.02 3 46 C2.42894531 46.3609375 1.85789062 46.721875 1.26953125 47.09375 C-5.82018251 51.15145581 -11.90182219 52.20378319 -20 51 C-27.86718313 48.70997037 -32.93478015 44.02820808 -37 37 C-40.45870586 29.16750468 -40.13917947 19.02662626 -37.09765625 11.1328125 C-33.85855798 4.83904859 -29.23322205 0.17910952 -22.59375 -2.37890625 C-14.73333614 -4.26114391 -7.07997897 -3.91658411 0 0 Z M-24.25 11.3125 C-27.68058732 16.58090196 -28.75989982 21.75713068 -28 28 C-26.77255982 32.92767955 -25.12821107 36.84313271 -21 40 C-16.85897996 42.30056669 -12.64508201 42.58405746 -8 42 C-2.52269275 39.9986762 0.39284629 37.23351642 2.98046875 32.02734375 C5.40238072 26.03073202 5.35967051 21.0335879 3 15 C0.63673295 11.05879772 -1.80353867 8.58550235 -5.9375 6.5625 C-13.40248272 5.19138072 -18.78343819 5.69408925 -24.25 11.3125 Z " fill="#DFDFE5" transform="translate(502,129)"/>
<path d="M0 0 C1.37478516 0.01740234 1.37478516 0.01740234 2.77734375 0.03515625 C3.69644531 0.04417969 4.61554688 0.05320312 5.5625 0.0625 C6.27277344 0.07410156 6.98304688 0.08570312 7.71484375 0.09765625 C8.57595891 3.1253494 8.89715268 5.94032262 9.03125 9.08203125 C9.0940918 10.48388672 9.0940918 10.48388672 9.15820312 11.9140625 C9.19751953 12.88214844 9.23683594 13.85023437 9.27734375 14.84765625 C9.32052734 15.83121094 9.36371094 16.81476563 9.40820312 17.828125 C9.51406427 20.251169 9.61614546 22.67431165 9.71484375 25.09765625 C10.64296875 23.86015625 10.64296875 23.86015625 11.58984375 22.59765625 C12.64171875 21.36015625 12.64171875 21.36015625 13.71484375 20.09765625 C14.37484375 20.09765625 15.03484375 20.09765625 15.71484375 20.09765625 C15.71484375 19.43765625 15.71484375 18.77765625 15.71484375 18.09765625 C16.37484375 18.09765625 17.03484375 18.09765625 17.71484375 18.09765625 C17.93011719 17.56398437 18.14539063 17.0303125 18.3671875 16.48046875 C20.21061219 13.22108017 22.71497748 10.66953855 25.27734375 7.97265625 C28.90118282 4.33362218 28.90118282 4.33362218 31.71484375 0.09765625 C36.33484375 0.09765625 40.95484375 0.09765625 45.71484375 0.09765625 C36.98399036 11.94667157 36.98399036 11.94667157 33.71484375 15.09765625 C33.05484375 15.09765625 32.39484375 15.09765625 31.71484375 15.09765625 C31.45316406 15.68804687 31.19148438 16.2784375 30.921875 16.88671875 C29.65089495 19.21479224 28.32354023 20.65795624 26.40234375 22.47265625 C23.25557609 25.52067597 20.46067165 28.68617311 17.71484375 32.09765625 C19.17764682 35.40388973 21.02392758 37.75359523 23.46484375 40.41015625 C24.64820313 41.70566406 24.64820313 41.70566406 25.85546875 43.02734375 C28.0172612 45.35963936 30.20026515 47.67129453 32.38671875 49.98046875 C33.01868164 50.65037842 33.65064453 51.32028809 34.30175781 52.01049805 C35.56469604 53.34709156 36.8321976 54.67938972 38.10449219 56.00708008 C38.6874707 56.62349365 39.27044922 57.23990723 39.87109375 57.875 C40.39509766 58.42406006 40.91910156 58.97312012 41.45898438 59.53881836 C42.71484375 61.09765625 42.71484375 61.09765625 43.71484375 64.09765625 C44.37484375 64.09765625 45.03484375 64.09765625 45.71484375 64.09765625 C45.71484375 64.75765625 45.71484375 65.41765625 45.71484375 66.09765625 C44.32153994 66.32228475 42.92495166 66.52658075 41.52734375 66.72265625 C40.75003906 66.83867187 39.97273438 66.9546875 39.171875 67.07421875 C35.10129382 67.11304782 32.57547946 65.83056511 29.50390625 63.21484375 C28.78976562 62.47492188 28.075625 61.735 27.33984375 60.97265625 C26.1796875 59.77382812 26.1796875 59.77382812 24.99609375 58.55078125 C22.3403132 55.69490765 19.75154094 52.79290947 17.22265625 49.82421875 C15.73688277 48.06724455 15.73688277 48.06724455 14.01953125 46.49609375 C12.71484375 45.09765625 12.71484375 45.09765625 12.71484375 43.09765625 C11.72484375 42.76765625 10.73484375 42.43765625 9.71484375 42.09765625 C9.65425781 43.41121094 9.59367187 44.72476563 9.53125 46.078125 C9.44681119 47.81381166 9.36216487 49.54948823 9.27734375 51.28515625 C9.21836914 52.58163086 9.21836914 52.58163086 9.15820312 53.90429688 C9.11630859 54.74541016 9.07441406 55.58652344 9.03125 56.453125 C8.97626343 57.60784302 8.97626343 57.60784302 8.92016602 58.78588867 C8.7016371 61.24635279 8.19927992 63.67547539 7.71484375 66.09765625 C4.08484375 66.09765625 0.45484375 66.09765625 -3.28515625 66.09765625 C-3.30828284 57.63998291 -3.32607295 49.18232269 -3.33696842 40.72462559 C-3.34219656 36.79776967 -3.34929294 32.87093531 -3.3605957 28.9440918 C-3.37142705 25.15751368 -3.37743361 21.37095635 -3.38003349 17.58436394 C-3.3818873 16.13661306 -3.38550706 14.68886337 -3.39088631 13.24112129 C-3.39809992 11.2200849 -3.39856433 9.19902777 -3.39868164 7.17797852 C-3.40090225 6.02548111 -3.40312286 4.8729837 -3.40541077 3.68556213 C-3.24058566 0.13848657 -3.24058566 0.13848657 0 0 Z " fill="#D1D2DA" transform="translate(413.28515625,112.90234375)"/>
<path d="M0 0 C3.63 0 7.26 0 11 0 C11.8826125 4.4130625 12.11788215 8.36062753 12.0625 12.8125 C12.05798828 13.50537109 12.05347656 14.19824219 12.04882812 14.91210938 C12.03713156 16.60811068 12.01919924 18.30406703 12 20 C12.66 20 13.32 20 14 20 C14.66 19.34 15.32 18.68 16 18 C22.43193529 16.26404515 30.5377369 15.75675472 36.875 18.0625 C43.23700848 22.00694526 46.38726332 26.69185752 48.41552734 33.83666992 C49.65082069 40.52242425 49.30323004 47.352973 49.1875 54.125 C49.17242062 55.66925773 49.15873799 57.21352976 49.14648438 58.7578125 C49.11374857 62.50551015 49.06214757 66.25266109 49 70 C45.37 70 41.74 70 38 70 C36.75952107 67.51904214 36.93576238 66.02827702 37 63.25 C37.03797205 57.01499015 36.90442037 50.79384459 36.6875 44.5625 C36.65366211 43.12342285 36.65366211 43.12342285 36.61914062 41.65527344 C36.42667907 36.68101718 36.26599396 33.01717257 33 29 C29.47494085 26.25828733 25.2661054 26.61681688 21 27 C17.09339148 27.79907902 16.21378517 28.69952396 13.87109375 31.9921875 C11.40410357 36.48468829 11.58930069 40.55013612 11.8125 45.5625 C11.85430315 47.32933606 11.89203743 49.0962729 11.92578125 50.86328125 C11.94463379 51.72904785 11.96348633 52.59481445 11.98291016 53.48681641 C12.02047341 59.01076068 11.50966202 64.50293108 11 70 C7.37 70 3.74 70 0 70 C0 46.9 0 23.8 0 0 Z " fill="#E3E3E9" transform="translate(306,109)"/>
<path d="M0 0 C3.3 0 6.6 0 10 0 C10.33 12.21 10.66 24.42 11 37 C15.54052718 31.89190693 20.07345268 26.78753703 24.5546875 21.62890625 C27.76191546 18.01427365 27.76191546 18.01427365 31.2578125 17.8046875 C32.53398438 17.82789062 33.81015625 17.85109375 35.125 17.875 C37.04699219 17.90207031 37.04699219 17.90207031 39.0078125 17.9296875 C40.48894531 17.96449219 40.48894531 17.96449219 42 18 C42 18.66 42 19.32 42 20 C40.34997172 21.35386936 38.6825613 22.68678142 37 24 C36.67 24.66 36.34 25.32 36 26 C35.34 26 34.68 26 34 26 C33.62488281 26.85078125 33.62488281 26.85078125 33.2421875 27.71875 C31.81778975 30.33462511 30.1256757 32.29548187 28.125 34.5 C27.44695313 35.2528125 26.76890625 36.005625 26.0703125 36.78125 C24.09095352 38.90252529 22.06523274 40.96255066 20 43 C21.0992434 45.56490126 22.12843192 47.12843192 24.125 49.125 C26 51 26 51 26 53 C26.66 53 27.32 53 28 53 C29.48046875 54.50390625 29.48046875 54.50390625 31.1875 56.5625 C34.18677493 60.10996174 37.33995132 63.36522872 40.71484375 66.5546875 C42 68 42 68 42 70 C30.24997549 71.67615623 30.24997549 71.67615623 25.08984375 67.83203125 C22.55332708 64.98972122 20.26129478 62.06459666 18 59 C16.64003281 57.42439837 15.26689136 55.85997203 13.875 54.3125 C12.91552521 53.20932507 11.95669592 52.10558569 11 51 C11.020625 52.27875 11.04125 53.5575 11.0625 54.875 C11.07060302 59.97179862 10.57043194 64.93741658 10 70 C6.7 70 3.4 70 0 70 C0 46.9 0 23.8 0 0 Z " fill="#DDDDE4" transform="translate(589,109)"/>
<path d="M0 0 C0.33 1.32 0.66 2.64 1 4 C2.5778125 3.01 2.5778125 3.01 4.1875 2 C10.47941987 -1.12919638 17.72153408 -1.22045983 24.4375 0.6953125 C29.93605805 3.17382919 33.08011274 6.92818038 36.25 12 C38.04417905 16.78447746 38.12788819 21.73319829 38.1328125 26.7890625 C38.13410156 28.06007812 38.13539063 29.33109375 38.13671875 30.640625 C38.13285156 31.95546875 38.12898437 33.2703125 38.125 34.625 C38.1285651 35.96093845 38.13246834 37.29687605 38.13671875 38.6328125 C38.13542969 39.90125 38.13414062 41.1696875 38.1328125 42.4765625 C38.13168457 43.63236816 38.13055664 44.78817383 38.12939453 45.97900391 C38 49 38 49 37 53 C33.7 53 30.4 53 27 53 C26.08295596 49.33182384 25.92157602 46.75140077 26.0078125 43.01953125 C26.02457031 41.85486328 26.04132812 40.69019531 26.05859375 39.49023438 C26.10251483 37.05778163 26.15446782 34.62545933 26.21484375 32.19335938 C26.29736004 25.37826389 26.15321096 19.18101012 23 13 C20.04605823 10.13293887 17.47682874 9.80336275 13.5 9.625 C9.53807601 9.796113 6.98015171 10.19515133 4 13 C0.02372241 20.73762125 0.4420586 29.00692123 0.3125 37.5 C0.27927717 39.00523718 0.24478303 40.51044687 0.20898438 42.015625 C0.12464864 45.67688192 0.05757327 49.33821306 0 53 C-3.63 53 -7.26 53 -11 53 C-11 35.84 -11 18.68 -11 1 C-2 0 -2 0 0 0 Z " fill="#D2D2DB" transform="translate(540,126)"/>
<path d="M0 0 C5.24721913 3.16390764 8.06806137 6.31861425 9.60546875 12.26953125 C9.87359375 13.50703125 10.14171875 14.74453125 10.41796875 16.01953125 C6.69095936 16.36652868 3.13124176 16.56071534 -0.58203125 16.01953125 C-3.14453125 13.08203125 -3.14453125 13.08203125 -4.58203125 10.01953125 C-6.92169815 8.8496978 -8.41594652 8.85340715 -11.01953125 8.83203125 C-11.80199219 8.81785156 -12.58445312 8.80367187 -13.390625 8.7890625 C-15.87409112 8.87867061 -15.87409112 8.87867061 -18.58203125 11.01953125 C-18.83218998 14.60310366 -18.83218998 14.60310366 -18.58203125 18.01953125 C-17.97617187 18.20128906 -17.3703125 18.38304687 -16.74609375 18.5703125 C-14.97776288 19.10081176 -13.21094015 19.63635328 -11.4453125 20.17578125 C-9.62010492 20.71363233 -7.78429144 21.21749327 -5.9375 21.67578125 C1.40619008 23.57092708 6.18532668 26.67056814 10.41796875 33.01953125 C11.27492962 37.67418189 11.00123126 41.80492504 8.41796875 45.83203125 C4.40772505 50.60877583 0.31739317 52.65321541 -5.859375 53.43359375 C-13.72175495 53.75799162 -20.26541796 52.97747678 -26.58203125 48.01953125 C-28.82779725 45.54419806 -30.45036586 43.17293594 -31.58203125 40.01953125 C-31.39453125 37.01953125 -31.39453125 37.01953125 -30.58203125 35.01953125 C-27.5313195 34.73172825 -24.62142863 34.57224405 -21.58203125 35.01953125 C-19.47841429 37.44187805 -18.58203125 38.80198759 -18.58203125 42.01953125 C-15.50952114 42.91063047 -12.71555732 43.18292849 -9.51953125 43.20703125 C-8.66230469 43.22121094 -7.80507813 43.23539063 -6.921875 43.25 C-4.31004816 43.1779921 -4.31004816 43.1779921 -1.58203125 41.01953125 C-1.33181555 37.93587254 -1.33181555 37.93587254 -1.58203125 35.01953125 C-6.23525159 32.80531771 -10.7932896 30.88629868 -15.76953125 29.51953125 C-21.24596871 27.95483483 -25.85555412 25.403622 -29.58203125 21.01953125 C-30.96299928 16.5095344 -30.78370074 12.70296673 -29.45703125 8.20703125 C-23.69938225 -1.58097205 -10.27897996 -3.90321327 0 0 Z " fill="#D6D6DE" transform="translate(286.58203125,126.98046875)"/>
<path d="M0 0 C3.96 0 7.92 0 12 0 C12.59167969 1.25554687 13.18335938 2.51109375 13.79296875 3.8046875 C19.76279354 16.46743454 19.76279354 16.46743454 26 29 C28.49952597 25.90071748 30.21316107 22.73355301 31.91796875 19.140625 C32.44970703 18.02558594 32.98144531 16.91054687 33.52929688 15.76171875 C34.07650391 14.60285156 34.62371094 13.44398437 35.1875 12.25 C36.02571289 10.48849609 36.02571289 10.48849609 36.88085938 8.69140625 C38.25787017 5.79615279 39.62945925 2.89832183 41 0 C44.96 0 48.92 0 53 0 C51.3358809 4.16029774 49.50574203 8.12939907 47.5 12.125 C47.15831787 12.82383301 46.81663574 13.52266602 46.46459961 14.24267578 C44.569601 18.07328917 42.57264611 21.74797508 40.28515625 25.359375 C32.12809507 38.64908325 31.59253288 50.60013971 32 66 C28.37 66 24.74 66 21 66 C21.10054687 63.58494141 21.10054687 63.58494141 21.203125 61.12109375 C21.4742677 44.60156682 18.12746736 33.55017402 9.54052734 19.54003906 C7.29281419 15.83398397 5.27155836 12.0199297 3.25 8.1875 C2.91540771 7.57688721 2.58081543 6.96627441 2.23608398 6.3371582 C0 2.22634718 0 2.22634718 0 0 Z " fill="#D2D3DC" transform="translate(135,113)"/>
<path d="M0 0 C3.46679688 0.04882812 3.46679688 0.04882812 6.93359375 0.09765625 C6.41970366 6.83066409 5.37798546 13.19629033 3.72460938 19.73828125 C3.50173752 20.64361099 3.27886566 21.54894073 3.04924011 22.48170471 C2.31946941 25.43872598 1.57985312 28.39318221 0.83984375 31.34765625 C0.327464 33.41352201 -0.18436823 35.47952363 -0.69567871 37.5456543 C-1.76407758 41.8568596 -2.83699751 46.16690391 -3.91357422 50.47607422 C-5.29537644 56.00726936 -6.66896071 61.54046269 -8.03960419 67.07443237 C-9.09438191 71.3316015 -10.15183597 75.58810176 -11.21028137 79.84436035 C-11.71789557 81.88566782 -12.22504804 83.92709016 -12.73173523 85.96862793 C-13.43780834 88.8104423 -14.14709315 91.65143429 -14.85742188 94.4921875 C-15.17227287 95.76226402 -15.17227287 95.76226402 -15.4934845 97.05799866 C-16.95172145 102.86828665 -16.95172145 102.86828665 -18.06640625 105.09765625 C-20.1328125 105.51171875 -20.1328125 105.51171875 -22.62890625 105.72265625 C-23.86833984 105.83480469 -23.86833984 105.83480469 -25.1328125 105.94921875 C-25.77089844 105.99820313 -26.40898437 106.0471875 -27.06640625 106.09765625 C-27.96119718 102.53227895 -28.08880603 100.07301079 -27.17700195 96.51831055 C-26.95496597 95.63086151 -26.73292999 94.74341248 -26.50416565 93.82907104 C-26.25271286 92.86969635 -26.00126007 91.91032166 -25.7421875 90.921875 C-25.48449081 89.90368683 -25.22679413 88.88549866 -24.96128845 87.8364563 C-24.11034896 84.4834257 -23.24470247 81.13437844 -22.37890625 77.78515625 C-21.78703148 75.46535667 -21.19622315 73.14528476 -20.60644531 70.82495117 C-19.3824375 66.0121465 -18.15360716 61.2006065 -16.92236328 56.38964844 C-15.10513358 49.271185 -13.32791481 42.14318632 -11.5625 35.01171875 C-11.28662552 33.8989003 -11.01075104 32.78608185 -10.72651672 31.63954163 C-9.65931905 27.33409081 -8.59239084 23.02857953 -7.5296936 18.72201538 C-6.80040274 15.76958474 -6.06673848 12.81827416 -5.33203125 9.8671875 C-5.11594711 8.98741241 -4.89986298 8.10763733 -4.67723083 7.20120239 C-2.91193806 0.13761522 -2.91193806 0.13761522 0 0 Z " fill="#E7990F" transform="translate(392.06640625,89.90234375)"/>
<path d="M0 0 C1.37478516 0.01740234 1.37478516 0.01740234 2.77734375 0.03515625 C3.69644531 0.04417969 4.61554687 0.05320312 5.5625 0.0625 C6.27277344 0.07410156 6.98304688 0.08570312 7.71484375 0.09765625 C9.13990723 2.9477832 8.84212682 5.36481872 8.84423828 8.55102539 C8.8459906 9.21295395 8.84774292 9.87488251 8.84954834 10.55686951 C8.85395639 12.74887702 8.85103289 14.94080414 8.84765625 17.1328125 C8.84832951 18.65213537 8.84929972 20.17145814 8.85055542 21.69078064 C8.85203091 24.87597682 8.84988232 28.06114497 8.84521484 31.24633789 C8.83951279 35.33786526 8.8428005 39.42932711 8.84878731 43.52085209 C8.85239281 46.65799965 8.85125447 49.79513156 8.84865952 52.93227959 C8.84799047 54.44143112 8.8488179 55.95058406 8.85113907 57.45973396 C8.85366595 59.56442177 8.84982478 61.6690019 8.84423828 63.77368164 C8.84304489 65.57332115 8.84304489 65.57332115 8.84182739 67.40931702 C8.71484375 70.09765625 8.71484375 70.09765625 7.71484375 71.09765625 C6.02875409 71.16971136 4.33983716 71.18151693 2.65234375 71.16015625 C1.27369141 71.14662109 1.27369141 71.14662109 -0.1328125 71.1328125 C-0.84308594 71.12121094 -1.55335938 71.10960937 -2.28515625 71.09765625 C-2.43874765 61.98814954 -2.58692935 52.87857587 -2.72811985 43.76886845 C-2.79384533 39.53930389 -2.86146531 35.30978699 -2.93334961 31.08032227 C-3.00259589 27.0020338 -3.06695107 22.92369531 -3.12785149 18.84527397 C-3.15200939 17.28585422 -3.17795827 15.72646119 -3.20569038 14.16710091 C-3.24410104 11.9904308 -3.27625987 9.81375444 -3.30688477 7.63696289 C-3.32687027 6.39564102 -3.34685577 5.15431915 -3.3674469 3.87538147 C-3.25676114 0.13917783 -3.25676114 0.13917783 0 0 Z " fill="#FCFEFE" transform="translate(702.28515625,107.90234375)"/>
<path d="M0 0 C5.47007238 -0.84588748 10.09579236 -1.37526107 14.7421875 1.98046875 C17.2631986 4.57608921 19.62984884 7.26674488 22 10 C23.43214391 11.32064481 24.88835863 12.61601774 26.375 13.875 C27.01050781 14.42542969 27.64601563 14.97585937 28.30078125 15.54296875 C29.71974612 16.75969035 31.14086013 17.97390499 32.5625 19.1875 C34 21 34 21 33.78125 22.90625 C32.86962488 25.34940531 31.81831012 26.51737599 29.9375 28.3125 C29.3084375 28.91578125 28.679375 29.5190625 28.03125 30.140625 C25.36532496 32.58097177 22.65322985 34.95877367 19.890625 37.2890625 C18.11019585 38.90027731 16.7023415 40.58312506 15.1875 42.4375 C13.1364874 44.59134889 12.19370269 44.97447745 9.18359375 45.37109375 C6.42912807 45.37461159 3.74090692 45.26336116 1 45 C0.67 44.34 0.34 43.68 0 43 C0.67675781 42.32582031 1.35351562 41.65164062 2.05078125 40.95703125 C4.20804483 38.80128848 6.34682064 36.62832562 8.48046875 34.44921875 C9.71606836 33.19523615 10.95174673 31.94133117 12.1875 30.6875 C13.13012695 29.71973633 13.13012695 29.71973633 14.09179688 28.73242188 C14.69443359 28.12333984 15.29707031 27.51425781 15.91796875 26.88671875 C16.46219482 26.33201904 17.0064209 25.77731934 17.56713867 25.20581055 C19 24 19 24 21 24 C18.90683242 20.13204308 16.64125249 17.54594209 13.3125 14.6875 C9.92583074 11.7135966 6.59382451 8.71821031 3.375 5.5625 C2.72273437 4.92441406 2.07046875 4.28632812 1.3984375 3.62890625 C0 2 0 2 0 0 Z " fill="#E09517" transform="translate(725,122)"/>
<path d="M0 0 C1.07765625 0.03609375 2.1553125 0.0721875 3.265625 0.109375 C4.08546875 0.15578125 4.9053125 0.2021875 5.75 0.25 C4.45795512 3.09303661 3.10098217 5.14759844 0.88671875 7.34375 C0.32919922 7.89933594 -0.22832031 8.45492187 -0.80273438 9.02734375 C-1.38345703 9.59582031 -1.96417969 10.16429687 -2.5625 10.75 C-3.13162109 11.31847656 -3.70074219 11.88695312 -4.28710938 12.47265625 C-7.4620822 15.61482224 -10.69664615 18.52998429 -14.25 21.25 C-12.87297371 24.35033232 -11.2932727 26.44426604 -8.87890625 28.81640625 C-8.22212891 29.46673828 -7.56535156 30.11707031 -6.88867188 30.78710938 C-6.20353516 31.45548828 -5.51839844 32.12386719 -4.8125 32.8125 C-4.13123047 33.48474609 -3.44996094 34.15699219 -2.74804688 34.84960938 C-1.47956663 36.10069616 -0.20903913 37.34971314 1.06420898 38.59594727 C2.63577251 40.13792307 4.19583892 41.69050732 5.75 43.25 C5.255 44.24 5.255 44.24 4.75 45.25 C0.62670533 45.78231058 -3.42988142 46.26200076 -7.16796875 44.18359375 C-9.30532968 42.30101756 -11.2611203 40.29012298 -13.25 38.25 C-15.20642142 36.40353147 -17.18043402 34.57696965 -19.15551758 32.75048828 C-22.20133124 29.93224969 -25.22535692 27.09091964 -28.25 24.25 C-27.44080185 20.35862663 -26.06701961 18.71823678 -23.1875 15.9375 C-21.97320312 14.761875 -21.97320312 14.761875 -20.734375 13.5625 C-17.90228201 10.92633797 -15.02353401 8.35960434 -12.07421875 5.85546875 C-10.15372425 4.24532162 -10.15372425 4.24532162 -8.41015625 2.06640625 C-5.5077102 -0.37416774 -3.73384629 -0.16234114 0 0 Z " fill="#E19613" transform="translate(118.25,121.75)"/>
<path d="M0 0 C3.63 0 7.26 0 11 0 C11.8826125 4.4130625 12.11788215 8.36062753 12.0625 12.8125 C12.05798828 13.50537109 12.05347656 14.19824219 12.04882812 14.91210938 C12.03713156 16.60811068 12.01919924 18.30406703 12 20 C12.66 20 13.32 20 14 20 C14.66 19.34 15.32 18.68 16 18 C18.125 18.375 18.125 18.375 20 19 C15 22 15 22 10 25 C10 17.08 10 9.16 10 1 C7.36 1 4.72 1 2 1 C2 23.44 2 45.88 2 69 C4.64 69 7.28 69 10 69 C9.97643433 67.49433472 9.97643433 67.49433472 9.95239258 65.95825195 C9.89794886 62.22168045 9.86359774 58.48514379 9.83520508 54.74829102 C9.82015124 53.13332211 9.79970352 51.51839387 9.77368164 49.90356445 C9.73714714 47.57753445 9.72023985 45.25204659 9.70703125 42.92578125 C9.69154739 42.20787918 9.67606354 41.48997711 9.66011047 40.75032043 C9.65863019 36.30589159 10.35174855 33.58292843 13 30 C13.33 30.66 13.66 31.32 14 32 C13.69191406 32.8559375 13.38382812 33.711875 13.06640625 34.59375 C11.77342639 38.72370765 11.8200523 42.21407668 11.9375 46.5 C12.0546057 54.39650246 11.70864229 62.12900882 11 70 C7.37 70 3.74 70 0 70 C0 46.9 0 23.8 0 0 Z " fill="#3D3D58" transform="translate(306,109)"/>
<path d="M0 0 C0.66 0.33 1.32 0.66 2 1 C1.33871094 1.60328125 0.67742187 2.2065625 -0.00390625 2.828125 C-0.84824219 3.62734375 -1.69257812 4.4265625 -2.5625 5.25 C-3.40941406 6.03890625 -4.25632812 6.8278125 -5.12890625 7.640625 C-7.24769406 9.78495447 -7.24769406 9.78495447 -6.91015625 12.19140625 C-5.50722283 14.97920958 -3.81261168 15.71598163 -1 17 C2.69523952 17.71923208 2.69523952 17.71923208 6 18 C4.35 16.35 2.7 14.7 1 13 C1.33 12.01 1.66 11.02 2 10 C9.33333333 17.33333333 16.66666667 24.66666667 24 32 C23.505 32.99 23.505 32.99 23 34 C18.87670533 34.53231058 14.82011858 35.01200076 11.08203125 32.93359375 C8.94467032 31.05101756 6.9888797 29.04012298 5 27 C3.04357858 25.15353147 1.06956598 23.32696965 -0.90551758 21.50048828 C-3.95133124 18.68224969 -6.97535692 15.84091964 -10 13 C-9.1768522 8.8880543 -7.47549767 7.15963157 -4.4375 4.25 C-3.61121094 3.45078125 -2.78492187 2.6515625 -1.93359375 1.828125 C-1.29550781 1.22484375 -0.65742187 0.6215625 0 0 Z " fill="#B5781A" transform="translate(100,133)"/>
<path d="M0 0 C3.46679688 0.04882812 3.46679688 0.04882812 6.93359375 0.09765625 C6.45979937 8.57647263 4.50263237 16.52572953 2.37109375 24.72265625 C2.03774696 26.02587188 1.70506008 27.32925648 1.37304688 28.6328125 C0.56634375 31.78947689 -0.24693862 34.94428608 -1.06640625 38.09765625 C-1.39640625 38.09765625 -1.72640625 38.09765625 -2.06640625 38.09765625 C-1.73640625 31.82765625 -1.40640625 25.55765625 -1.06640625 19.09765625 C-0.40640625 19.09765625 0.25359375 19.09765625 0.93359375 19.09765625 C2.25359375 13.48765625 3.57359375 7.87765625 4.93359375 2.09765625 C2.95359375 2.09765625 0.97359375 2.09765625 -1.06640625 2.09765625 C-1.03160156 2.65453125 -0.99679687 3.21140625 -0.9609375 3.78515625 C-0.78147339 8.84433502 -1.35263836 12.53277801 -3.33984375 17.17578125 C-4.4301175 20.05973116 -4.64062613 23.05636971 -5.06640625 26.09765625 C-5.72640625 26.75765625 -6.38640625 27.41765625 -7.06640625 28.09765625 C-7.75607955 30.24932175 -7.75607955 30.24932175 -8.25 32.74609375 C-8.45560547 33.6690625 -8.66121094 34.59203125 -8.87304688 35.54296875 C-9.2918392 37.48782474 -9.70852452 39.4331357 -10.12304688 41.37890625 C-10.32994141 42.30445313 -10.53683594 43.23 -10.75 44.18359375 C-10.93103271 45.02970215 -11.11206543 45.87581055 -11.29858398 46.74755859 C-12.14432068 49.33613139 -13.32747737 51.02124281 -15.06640625 53.09765625 C-14.47284236 46.47120291 -13.27458254 40.27912072 -11.59765625 33.84765625 C-11.35728638 32.90833252 -11.1169165 31.96900879 -10.8692627 31.0012207 C-10.36449144 29.03407936 -9.85676098 27.06769516 -9.34619141 25.10205078 C-8.56190468 22.08031237 -7.78808636 19.0560306 -7.015625 16.03125 C-6.52274463 14.11572856 -6.02927638 12.20035826 -5.53515625 10.28515625 C-5.30284302 9.37797852 -5.07052979 8.47080078 -4.83117676 7.53613281 C-4.61425171 6.70436523 -4.39732666 5.87259766 -4.17382812 5.015625 C-3.98365112 4.28110107 -3.79347412 3.54657715 -3.59753418 2.78979492 C-2.83080316 0.3470403 -2.60519709 0.12311896 0 0 Z " fill="#AF7828" transform="translate(392.06640625,89.90234375)"/>
<path d="M0 0 C1.37478516 0.01740234 1.37478516 0.01740234 2.77734375 0.03515625 C3.69644531 0.04417969 4.61554687 0.05320312 5.5625 0.0625 C6.27277344 0.07410156 6.98304688 0.08570312 7.71484375 0.09765625 C9.13990723 2.9477832 8.84212682 5.36481872 8.84423828 8.55102539 C8.8459906 9.21295395 8.84774292 9.87488251 8.84954834 10.55686951 C8.85395639 12.74887702 8.85103289 14.94080414 8.84765625 17.1328125 C8.84832951 18.65213537 8.84929972 20.17145814 8.85055542 21.69078064 C8.85203091 24.87597682 8.84988232 28.06114497 8.84521484 31.24633789 C8.83951279 35.33786526 8.8428005 39.42932711 8.84878731 43.52085209 C8.85239281 46.65799965 8.85125447 49.79513156 8.84865952 52.93227959 C8.84799047 54.44143112 8.8488179 55.95058406 8.85113907 57.45973396 C8.85366595 59.56442177 8.84982478 61.6690019 8.84423828 63.77368164 C8.84304489 65.57332115 8.84304489 65.57332115 8.84182739 67.40931702 C8.71484375 70.09765625 8.71484375 70.09765625 7.71484375 71.09765625 C6.02875409 71.16971136 4.33983716 71.18151693 2.65234375 71.16015625 C1.27369141 71.14662109 1.27369141 71.14662109 -0.1328125 71.1328125 C-0.84308594 71.12121094 -1.55335938 71.10960937 -2.28515625 71.09765625 C-2.43874765 61.98814954 -2.58692935 52.87857587 -2.72811985 43.76886845 C-2.79384533 39.53930389 -2.86146531 35.30978699 -2.93334961 31.08032227 C-3.00259589 27.0020338 -3.06695107 22.92369531 -3.12785149 18.84527397 C-3.15200939 17.28585422 -3.17795827 15.72646119 -3.20569038 14.16710091 C-3.24410104 11.9904308 -3.27625987 9.81375444 -3.30688477 7.63696289 C-3.32687027 6.39564102 -3.34685577 5.15431915 -3.3674469 3.87538147 C-3.25676114 0.13917783 -3.25676114 0.13917783 0 0 Z M-1.28515625 2.09765625 C-1.28515625 24.53765625 -1.28515625 46.97765625 -1.28515625 70.09765625 C1.35484375 70.09765625 3.99484375 70.09765625 6.71484375 70.09765625 C6.71484375 47.65765625 6.71484375 25.21765625 6.71484375 2.09765625 C4.07484375 2.09765625 1.43484375 2.09765625 -1.28515625 2.09765625 Z " fill="#65668D" transform="translate(702.28515625,107.90234375)"/>
<path d="M0 0 C5.50528943 -0.85133342 10.1095043 -1.37200532 14.77734375 2.015625 C17.28783548 4.5996134 19.64417576 7.27519124 22 10 C24.27256203 12.08896187 26.61946129 14.03346802 29 16 C28.01 16 27.02 16 26 16 C25.34 15.34 24.68 14.68 24 14 C22.01178687 13.60235737 20.01055661 13.26224651 18 13 C18.33 14.98 18.66 16.96 19 19 C14.09294902 15.97224514 10.16705817 12.47192774 6.125 8.375 C5.53203125 7.78976563 4.9390625 7.20453125 4.328125 6.6015625 C0 2.25349222 0 2.25349222 0 0 Z " fill="#E19917" transform="translate(725,122)"/>
<path d="M0 0 C0.66 0 1.32 0 2 0 C1.31723167 6.96792764 -0.24687183 13.58940534 -1.94140625 20.375 C-2.22853989 21.5400708 -2.51567352 22.7051416 -2.81150818 23.90551758 C-3.72422803 27.60475094 -4.6432674 31.30238024 -5.5625 35 C-6.18466346 37.51682362 -6.80641277 40.03374967 -7.42773438 42.55078125 C-8.94702965 48.70171478 -10.47150825 54.85134571 -12 61 C-12.33 61 -12.66 61 -13 61 C-13.30713682 53.43533388 -13.21756163 47.94993312 -10 41 C-9.62904053 38.20131688 -9.43621403 35.41804965 -9.25 32.6015625 C-8.95493593 29.53105204 -8.15699117 26.85391154 -7 24 C-6.34 24 -5.68 24 -5 24 C-5 21.36 -5 18.72 -5 16 C-4.34 16 -3.68 16 -3 16 C-3.061875 14.845 -3.12375 13.69 -3.1875 12.5 C-3.21274356 7.78786879 -1.84474512 4.30440528 0 0 Z " fill="#AD7A28" transform="translate(388,128)"/>
<path d="M0 0 C3.63 0 7.26 0 11 0 C11.02464113 7.24487049 11.0428318 14.48971682 11.05493164 21.73461914 C11.05997356 24.20142033 11.06680691 26.66821852 11.07543945 29.13500977 C11.08751125 32.67204529 11.09322956 36.20904145 11.09765625 39.74609375 C11.10281754 40.85649521 11.10797882 41.96689667 11.11329651 43.11094666 C11.11340981 44.64242088 11.11340981 44.64242088 11.11352539 46.20483398 C11.115746 47.10862289 11.11796661 48.0124118 11.12025452 48.94358826 C11 51 11 51 10 52 C8.31391034 52.07205511 6.62499341 52.08386068 4.9375 52.0625 C4.01839844 52.05347656 3.09929688 52.04445312 2.15234375 52.03515625 C1.44207031 52.02355469 0.73179687 52.01195312 0 52 C0 50.35 0 48.7 0 47 C-0.66 46.67 -1.32 46.34 -2 46 C-1.01 45.01 -0.02 44.02 1 43 C1 45.64 1 48.28 1 51 C3.64 51 6.28 51 9 51 C9 34.5 9 18 9 1 C6.36 1 3.72 1 1 1 C1 3.64 1 6.28 1 9 C0.566875 8.525625 0.13375 8.05125 -0.3125 7.5625 C-2.02309613 5.76313043 -2.02309613 5.76313043 -5 5 C-5.33 4.01 -5.66 3.02 -6 2 C-3.525 2.495 -3.525 2.495 -1 3 C-0.67 2.01 -0.34 1.02 0 0 Z " fill="#757493" transform="translate(677,127)"/>
<path d="M0 0 C3 1 3 1 5 3 C4.77256695 5.95662966 4.38764062 7.55033688 2.4375 9.8125 C1.963125 10.204375 1.48875 10.59625 1 11 C1.639375 11.268125 2.27875 11.53625 2.9375 11.8125 C5 13 5 13 6 16 C0.97524332 16.29557392 -1.92352591 16.0282379 -6 13 C-6.66 12.34 -7.32 11.68 -8 11 C-7.70831244 7.38008264 -6.00384429 5.67636187 -3.4375 3.25 C-2.79683594 2.63640625 -2.15617187 2.0228125 -1.49609375 1.390625 C-1.00238281 0.93171875 -0.50867188 0.4728125 0 0 Z " fill="#F6A511" transform="translate(100,135)"/>
<path d="M0 0 C3.3 0 6.6 0 10 0 C11.05619003 4.28297531 11.11702092 8.42985646 11.0625 12.8125 C11.05798828 13.50537109 11.05347656 14.19824219 11.04882812 14.91210938 C11.03713156 16.60811068 11.01919924 18.30406703 11 20 C11.66 20 12.32 20 13 20 C13.66 19.34 14.32 18.68 15 18 C17.125 18.375 17.125 18.375 19 19 C14 22 14 22 9 25 C9 17.08 9 9.16 9 1 C6.36 1 3.72 1 1 1 C1 23.44 1 45.88 1 69 C0.67 69 0.34 69 0 69 C0 46.23 0 23.46 0 0 Z " fill="#B0B0C8" transform="translate(307,109)"/>
<path d="M0 0 C2.97 0 5.94 0 9 0 C8.42326376 8.4967058 6.57750707 16.39550745 4.4375 24.625 C4.10415321 25.92821563 3.77146633 27.23160023 3.43945312 28.53515625 C2.63275 31.69182064 1.81946763 34.84662983 1 38 C0.67 38 0.34 38 0 38 C0.33 31.73 0.66 25.46 1 19 C1.66 19 2.32 19 3 19 C4.32 13.39 5.64 7.78 7 2 C5.02 2.33 3.04 2.66 1 3 C-0.45291273 5.46255685 -0.45291273 5.46255685 -1 8 C-1.625 6.25 -1.625 6.25 -2 4 C-1.34 2.68 -0.68 1.36 0 0 Z " fill="#8F622B" transform="translate(390,90)"/>
<path d="M0 0 C0.66 0.33 1.32 0.66 2 1 C1.21753906 1.75925781 0.43507813 2.51851562 -0.37109375 3.30078125 C-1.39349196 4.30441986 -2.41561299 5.30834089 -3.4375 6.3125 C-3.95376953 6.81201172 -4.47003906 7.31152344 -5.00195312 7.82617188 C-7.40590176 10.19869635 -8.91656793 11.74970379 -10 15 C-10.66 15 -11.32 15 -12 15 C-12 15.66 -12 16.32 -12 17 C-9.525 17.99 -9.525 17.99 -7 19 C-7 18.01 -7 17.02 -7 16 C-7.66 15.67 -8.32 15.34 -9 15 C-6 14 -6 14 -3 15 C-3 13.68 -3 12.36 -3 11 C-2.34 11 -1.68 11 -1 11 C-1.28043765 14.27177256 -2.03809142 16.05713713 -3.875 18.8125 C-8.44153951 22.00907766 -12.59232991 21.42617365 -18 21 C-18.33 20.34 -18.66 19.68 -19 19 C-12.66666667 12.66666667 -6.33333333 6.33333333 0 0 Z " fill="#A37025" transform="translate(744,146)"/>
<path d="M0 0 C1.37478516 0.01740234 1.37478516 0.01740234 2.77734375 0.03515625 C3.69644531 0.04417969 4.61554687 0.05320312 5.5625 0.0625 C6.27277344 0.07410156 6.98304688 0.08570312 7.71484375 0.09765625 C8.04484375 0.75765625 8.37484375 1.41765625 8.71484375 2.09765625 C5.41484375 2.09765625 2.11484375 2.09765625 -1.28515625 2.09765625 C-1.28515625 24.53765625 -1.28515625 46.97765625 -1.28515625 70.09765625 C1.68484375 70.09765625 4.65484375 70.09765625 7.71484375 70.09765625 C7.71484375 70.42765625 7.71484375 70.75765625 7.71484375 71.09765625 C4.41484375 71.09765625 1.11484375 71.09765625 -2.28515625 71.09765625 C-2.43874765 61.98814954 -2.58692935 52.87857587 -2.72811985 43.76886845 C-2.79384533 39.53930389 -2.86146531 35.30978699 -2.93334961 31.08032227 C-3.00259589 27.0020338 -3.06695107 22.92369531 -3.12785149 18.84527397 C-3.15200939 17.28585422 -3.17795827 15.72646119 -3.20569038 14.16710091 C-3.24410104 11.9904308 -3.27625987 9.81375444 -3.30688477 7.63696289 C-3.32687027 6.39564102 -3.34685577 5.15431915 -3.3674469 3.87538147 C-3.25676114 0.13917783 -3.25676114 0.13917783 0 0 Z " fill="#6F7086" transform="translate(702.28515625,107.90234375)"/>
<path d="M0 0 C8.84 2.21 8.84 2.21 11 5 C11.02185566 8.07071993 10.58054307 10.99001039 10 14 C9.01 13.01 8.02 12.02 7 11 C6.34 12.32 5.68 13.64 5 15 C4.01 15 3.02 15 2 15 C2.7425 14.1028125 2.7425 14.1028125 3.5 13.1875 C5.28276418 11.02970006 5.28276418 11.02970006 5 8 C4.38125 7.95875 3.7625 7.9175 3.125 7.875 C2.42375 7.58625 1.7225 7.2975 1 7 C-0.25 3.9375 -0.25 3.9375 -1 1 C-0.67 0.67 -0.34 0.34 0 0 Z " fill="#F7A40B" transform="translate(743,134)"/>
<path d="M0 0 C0.33 0 0.66 0 1 0 C1 17.16 1 34.32 1 52 C-2.63 52 -6.26 52 -10 52 C-10.33 50.68 -10.66 49.36 -11 48 C-11.66 47.67 -12.32 47.34 -13 47 C-10.525 44.525 -10.525 44.525 -8 42 C-8 44.97 -8 47.94 -8 51 C-5.36 51 -2.72 51 0 51 C0 34.17 0 17.34 0 0 Z " fill="#454567" transform="translate(516,127)"/>
<path d="M0 0 C0.66 0 1.32 0 2 0 C1.28978435 7.8423813 -0.67644499 15.37599603 -2.5625 23 C-2.89559326 24.36057654 -3.228279 25.72125291 -3.56054688 27.08203125 C-4.36970436 30.38902271 -5.182967 33.69494713 -6 37 C-6.33 37 -6.66 37 -7 37 C-6.44210432 29.98475852 -5.81552077 22.99017804 -5 16 C-4.34 16 -3.68 16 -3 16 C-3.061875 14.845 -3.12375 13.69 -3.1875 12.5 C-3.21274356 7.78786879 -1.84474512 4.30440528 0 0 Z " fill="#926428" transform="translate(388,128)"/>
<path d="M0 0 C4.45673159 0.49871064 6.57687178 2.02004362 9.8125 5.0625 C10.60269531 5.79597656 11.39289062 6.52945313 12.20703125 7.28515625 C12.79871094 7.85105469 13.39039063 8.41695312 14 9 C13.01 9 12.02 9 11 9 C10.34 8.34 9.68 7.68 9 7 C7.01178687 6.60235737 5.01055661 6.26224651 3 6 C3.33 7.98 3.66 9.96 4 12 C-1.01202555 9.01665146 -4.38748484 5.56048012 -8 1 C-5.06553114 2.41791563 -2.56667591 3.98332607 0 6 C-0.185625 5.38125 -0.37125 4.7625 -0.5625 4.125 C-1 2 -1 2 0 0 Z " fill="#B2751D" transform="translate(740,129)"/>
<path d="M0 0 C1.0546875 1.859375 1.0546875 1.859375 2 4 C1.125 6.25 1.125 6.25 0 8 C-0.66 8 -1.32 8 -2 8 C-2 9.32 -2 10.64 -2 12 C-3.65 12 -5.3 12 -7 12 C-6.67 13.32 -6.34 14.64 -6 16 C-7.65 16 -9.3 16 -11 16 C-11 14.68 -11 13.36 -11 12 C-10.34 12 -9.68 12 -9 12 C-8.91878906 11.42765625 -8.83757813 10.8553125 -8.75390625 10.265625 C-7.76724305 7.30052315 -6.18895534 5.89424319 -3.9375 3.75 C-3.20402344 3.04359375 -2.47054687 2.3371875 -1.71484375 1.609375 C-1.14894531 1.07828125 -0.58304688 0.5471875 0 0 Z " fill="#F4A713" transform="translate(743,149)"/>
<path d="M0 0 C2.8203125 -0.29296875 2.8203125 -0.29296875 6.125 -0.1875 C7.76855469 -0.14689453 7.76855469 -0.14689453 9.4453125 -0.10546875 C10.28835937 -0.07066406 11.13140625 -0.03585938 12 0 C10.1144852 4.28359673 7.64034299 6.15103592 4 9 C4 6.69 4 4.38 4 2 C2.02 2.33 0.04 2.66 -2 3 C-1.34 2.01 -0.68 1.02 0 0 Z " fill="#9F6E2D" transform="translate(112,122)"/>
<path d="M0 0 C0.33 0 0.66 0 1 0 C2.05619003 4.28297531 2.11702092 8.42985646 2.0625 12.8125 C2.05798828 13.50537109 2.05347656 14.19824219 2.04882812 14.91210938 C2.03713156 16.60811068 2.01919924 18.30406703 2 20 C2.66 20 3.32 20 4 20 C4.66 19.34 5.32 18.68 6 18 C8.125 18.375 8.125 18.375 10 19 C5 22 5 22 0 25 C0 16.75 0 8.5 0 0 Z " fill="#4D4D6D" transform="translate(316,109)"/>
<path d="M0 0 C1.65 1.32 3.3 2.64 5 4 C4.43040847 7.62613199 3.07625466 9.25517741 0.4375 11.75 C-0.52349609 12.67039063 -0.52349609 12.67039063 -1.50390625 13.609375 C-1.99761719 14.06828125 -2.49132812 14.5271875 -3 15 C-3.66 14.67 -4.32 14.34 -5 14 C-4.52949219 13.62230469 -4.05898438 13.24460938 -3.57421875 12.85546875 C-1.50320971 10.41445314 -1.29313284 8.45509934 -0.8125 5.3125 C-0.65394531 4.31863281 -0.49539063 3.32476562 -0.33203125 2.30078125 C-0.22246094 1.54152344 -0.11289062 0.78226563 0 0 Z " fill="#A16D20" transform="translate(754,139)"/>
<path d="M0 0 C0.66 0 1.32 0 2 0 C1.71956235 3.27177256 0.96190858 5.05713713 -0.875 7.8125 C-5.44153951 11.00907766 -9.59232991 10.42617365 -15 10 C-15.33 9.34 -15.66 8.68 -16 8 C-15.67 7.34 -15.34 6.68 -15 6 C-13 7 -13 7 -12 8 C-9.32941149 8.14115161 -6.67567762 8.04247107 -4 8 C-4 7.01 -4 6.02 -4 5 C-4.66 4.67 -5.32 4.34 -6 4 C-3 3 -3 3 0 4 C0 2.68 0 1.36 0 0 Z " fill="#BD801F" transform="translate(741,157)"/>
<path d="M0 0 C2 2 2 2 2 5 C-1.03336186 5.22893297 -3.97465051 5.36475845 -7 5 C-9.0625 3 -9.0625 3 -10 1 C-6.60598928 0.22422612 -3.48397425 -0.2824844 0 0 Z " fill="#F5A613" transform="translate(119,160)"/>
<path d="M0 0 C0.33 0.99 0.66 1.98 1 3 C-0.78520561 5.00611734 -2.57758712 7.0048717 -4.375 9 C-4.88289063 9.57234375 -5.39078125 10.1446875 -5.9140625 10.734375 C-7.23504905 12.19441277 -8.61400799 13.60152157 -10 15 C-10.66 15 -11.32 15 -12 15 C-10.79618552 12.50638429 -9.54571278 10.31856917 -8 8 C-7.34 8 -6.68 8 -6 8 C-6 7.34 -6 6.68 -6 6 C-5.34 6 -4.68 6 -4 6 C-3.566875 5.071875 -3.566875 5.071875 -3.125 4.125 C-2 2 -2 2 0 0 Z " fill="#9E9DB3" transform="translate(435,125)"/>
<path d="M0 0 C0.33 0 0.66 0 1 0 C1.37369729 7.47394574 0.04061541 13.82140651 -2 21 C-2.33 21 -2.66 21 -3 21 C-2.67 14.73 -2.34 8.46 -2 2 C-1.34 2 -0.68 2 0 2 C0 1.34 0 0.68 0 0 Z " fill="#AC7827" transform="translate(393,107)"/>
<path d="M0 0 C0.66 0.33 1.32 0.66 2 1 C1.01 7.6 0.02 14.2 -1 21 C-1.33 21 -1.66 21 -2 21 C-2.0543965 18.62468606 -2.09385864 16.25064117 -2.125 13.875 C-2.14175781 13.20984375 -2.15851563 12.5446875 -2.17578125 11.859375 C-2.21847278 7.50483944 -1.59996217 4.04399886 0 0 Z " fill="#CA8621" transform="translate(381,152)"/>
<path d="M0 0 C0 1.32 0 2.64 0 4 C-1.65 4 -3.3 4 -5 4 C-4.67 5.32 -4.34 6.64 -4 8 C-5.65 8 -7.3 8 -9 8 C-9 6.68 -9 5.36 -9 4 C-8.34 4 -7.68 4 -7 4 C-7 3.34 -7 2.68 -7 2 C-4.35261084 0.5393715 -3.10551666 0 0 0 Z " fill="#FAA408" transform="translate(741,157)"/>
<path d="M0 0 C3.875 1.875 3.875 1.875 5 3 C6.51469448 3.23192865 8.03754562 3.41215238 9.5625 3.5625 C10.38878906 3.64628906 11.21507813 3.73007813 12.06640625 3.81640625 C12.70449219 3.87699219 13.34257813 3.93757812 14 4 C14 3.34 14 2.68 14 2 C14.66 2 15.32 2 16 2 C16.33 2.99 16.66 3.98 17 5 C15.36781064 6.63218936 13.56056873 6.28763111 11.3125 6.375 C7.50461847 6.35861027 5.32513799 6.01741099 2.375 3.5625 C0 1 0 1 0 0 Z " fill="#74502D" transform="translate(107,161)"/>
<path d="M0 0 C2.97 0 5.94 0 9 0 C9.66 1.65 10.32 3.3 11 5 C10.34 5 9.68 5 9 5 C9 4.01 9 3.02 9 2 C6.36 2 3.72 2 1 2 C1 3.65 1 5.3 1 7 C0.34 6.34 -0.32 5.68 -1 5 C-0.625 2.375 -0.625 2.375 0 0 Z " fill="#696A7D" transform="translate(256,162)"/>
<path d="M0 0 C0.33 0 0.66 0 1 0 C1 2.97 1 5.94 1 9 C3.64 9 6.28 9 9 9 C9 9.33 9 9.66 9 10 C5.7 10 2.4 10 -1 10 C-1.33 8.68 -1.66 7.36 -2 6 C-2.66 5.67 -3.32 5.34 -4 5 C-2.69254251 3.31295807 -1.35827971 1.64639965 0 0 Z " fill="#787898" transform="translate(507,169)"/>
<path d="M0 0 C1.95766281 -0.08082094 3.91626728 -0.13910778 5.875 -0.1875 C7.51082031 -0.23970703 7.51082031 -0.23970703 9.1796875 -0.29296875 C10.11039063 -0.19628906 11.04109375 -0.09960938 12 0 C12.66 0.99 13.32 1.98 14 3 C10.37 2.67 6.74 2.34 3 2 C2.67 2.66 2.34 3.32 2 4 C1.34 2.68 0.68 1.36 0 0 Z " fill="#7E5936" transform="translate(725,122)"/>
<path d="M0 0 C1.32 0 2.64 0 4 0 C3.67 1.65 3.34 3.3 3 5 C2.01 5.33 1.02 5.66 0 6 C-0.66 4.68 -1.32 3.36 -2 2 C-1.34 1.34 -0.68 0.68 0 0 Z " fill="#E79B12" transform="translate(101,138)"/>
<path d="M0 0 C0.66 0 1.32 0 2 0 C1.67 2.64 1.34 5.28 1 8 C0.34 8 -0.32 8 -1 8 C-1.33 9.32 -1.66 10.64 -2 12 C-3.12377697 8.69564916 -2.89554742 6.9493138 -1.5625 3.75 C-1.27503906 3.04359375 -0.98757813 2.3371875 -0.69140625 1.609375 C-0.46324219 1.07828125 -0.23507812 0.5471875 0 0 Z " fill="#C28127" transform="translate(388,128)"/>
<path d="M0 0 C0.66 0.33 1.32 0.66 2 1 C1.6875 3.375 1.6875 3.375 1 6 C0.01 6.66 -0.98 7.32 -2 8 C-2.33 6.02 -2.66 4.04 -3 2 C-2.01 1.34 -1.02 0.68 0 0 Z " fill="#D38E18" transform="translate(745,152)"/>
<path d="M0 0 C0.33 0 0.66 0 1 0 C1 2.97 1 5.94 1 9 C0.01 8.01 -0.98 7.02 -2 6 C-2.99 5.67 -3.98 5.34 -5 5 C-5.33 4.01 -5.66 3.02 -6 2 C-3.525 2.495 -3.525 2.495 -1 3 C-0.67 2.01 -0.34 1.02 0 0 Z " fill="#5C5C74" transform="translate(677,127)"/>
<path d="M0 0 C0.66 0.33 1.32 0.66 2 1 C1.07038578 2.15224028 0.1309875 3.29659176 -0.8125 4.4375 C-1.59560547 5.39462891 -1.59560547 5.39462891 -2.39453125 6.37109375 C-4 8 -4 8 -7 9 C-5.44499019 5.18315774 -2.96404505 2.80804268 0 0 Z " fill="#A6A5B8" transform="translate(645,129)"/>
<path d="M0 0 C0.68707555 2.49064888 1 4.37886292 1 7 C-0.96466413 8.06775224 -2.96855359 9.06553465 -5 10 C-5.66 9.67 -6.32 9.34 -7 9 C-6.21625 8.2575 -5.4325 7.515 -4.625 6.75 C-2.43495469 4.45566682 -1.17268614 2.87841142 0 0 Z " fill="#8E8FA1" transform="translate(233,160)"/>
<path d="M0 0 C0 3.57575896 -1.08840607 5.05295935 -3 8 C-4.32 7.67 -5.64 7.34 -7 7 C-4.69 4.69 -2.38 2.38 0 0 Z " fill="#AA7126" transform="translate(109,125)"/>
<path d="M0 0 C0 3.15084005 -0.45473667 4.33871316 -2 7 C-2.66 7.66 -3.32 8.32 -4 9 C-4.66 8.34 -5.32 7.68 -6 7 C-4.02 4.69 -2.04 2.38 0 0 Z " fill="#A4A3B9" transform="translate(442,117)"/>
<path d="M0 0 C2 1 2 1 3 2 C4.34747084 2.23075082 5.70377565 2.41153063 7.0625 2.5625 C8.361875 2.706875 9.66125 2.85125 11 3 C11 3.33 11 3.66 11 4 C7.37 4 3.74 4 0 4 C-0.33 3.34 -0.66 2.68 -1 2 C-0.67 1.34 -0.34 0.68 0 0 Z " fill="#51342F" transform="translate(726,163)"/>
<path d="M0 0 C0.66 0.33 1.32 0.66 2 1 C0.38405168 3.04119788 -1.2856382 5.04072937 -3 7 C-3.66 7 -4.32 7 -5 7 C-3.70700306 4.11562221 -2.34058637 2.12780579 0 0 Z " fill="#9C9BB0" transform="translate(473,130)"/>
<path d="M0 0 C0.99 0.66 1.98 1.32 3 2 C3 2.99 3 3.98 3 5 C1.35 5 -0.3 5 -2 5 C-1.34 3.35 -0.68 1.7 0 0 Z " fill="#D5901F" transform="translate(118,160)"/>
</svg>
