<?xml version="1.0" standalone="no"?>
<!DOCTYPE svg PUBLIC "-//W3C//DTD SVG 20010904//EN"
 "http://www.w3.org/TR/2001/REC-SVG-20010904/DTD/svg10.dtd">
<svg version="1.0" xmlns="http://www.w3.org/2000/svg"
 width="300.000000pt" height="102.000000pt" viewBox="0 0 300.000000 102.000000"
 preserveAspectRatio="xMidYMid meet">
<metadata>
Created by potrace 1.10, written by Peter Selinger 2001-2011
</metadata>
<g transform="translate(0.000000,102.000000) scale(0.100000,-0.100000)"
fill="#000000" stroke="none">
<path d="M1366 702 c-2 -4 -25 -88 -49 -185 -40 -159 -43 -177 -27 -177 15 0
25 30 60 173 24 94 43 176 44 181 1 12 -21 19 -28 8z"/>
<path d="M1070 515 c0 -118 1 -125 20 -125 18 0 20 7 20 64 0 56 3 67 22 80
18 13 19 16 6 16 -25 0 -38 -32 -38 -94 0 -31 -4 -56 -10 -56 -6 0 -10 45 -10
115 0 70 4 115 10 115 6 0 10 -18 10 -40 0 -38 12 -52 25 -30 10 17 71 11 88
-8 19 -21 25 -152 7 -152 -5 0 -10 25 -10 56 0 56 -12 94 -31 94 -6 0 -3 -7 5
-16 11 -11 16 -35 16 -80 0 -57 2 -64 20 -64 18 0 20 7 20 73 0 65 -3 76 -25
97 -20 19 -32 22 -65 17 -40 -5 -40 -5 -40 29 0 27 -4 34 -20 34 -19 0 -20 -7
-20 -125z"/>
<path d="M2060 515 c0 -118 1 -125 20 -125 16 0 20 7 20 33 l1 32 29 -32 c20
-22 39 -33 57 -33 27 0 27 0 -17 45 -48 49 -48 45 14 113 l30 32 -24 0 c-13 0
-39 -14 -57 -32 l-33 -32 0 62 c0 55 -2 62 -20 62 -19 0 -20 -7 -20 -125z m30
50 c0 -36 3 -65 8 -65 4 0 20 16 35 35 15 19 35 35 44 35 12 0 7 -11 -20 -38
-20 -21 -37 -42 -37 -47 0 -5 17 -26 37 -47 48 -49 21 -50 -29 -1 l-38 37 0
-37 c0 -20 -4 -37 -10 -37 -6 0 -10 45 -10 115 0 70 4 115 10 115 6 0 10 -28
10 -65z"/>
<path d="M2444 627 c-2 -7 -3 -62 -2 -123 3 -104 4 -109 26 -112 22 -3 22 -2
22 122 0 120 -1 126 -20 126 -11 0 -23 -6 -26 -13z m36 -112 c0 -96 -3 -115
-15 -115 -12 0 -15 19 -15 115 0 96 3 115 15 115 12 0 15 -19 15 -115z"/>
<path d="M470 625 c0 -10 30 -65 36 -65 2 0 -2 14 -11 30 -13 24 -13 30 -2 30
7 0 24 -23 37 -51 13 -28 28 -52 32 -55 4 -3 20 20 35 50 15 31 33 56 41 56 8
0 1 -21 -23 -63 -19 -35 -35 -68 -35 -73 0 -10 79 127 80 139 0 4 -9 7 -20 7
-14 0 -28 -16 -48 -55 l-28 -56 -27 56 c-19 39 -32 55 -47 55 -11 0 -20 -2
-20 -5z"/>
<path d="M1437 623 c-4 -3 -7 -57 -7 -120 0 -111 0 -113 23 -112 16 1 18 2 5
6 -16 4 -18 18 -18 114 0 66 4 109 10 109 6 0 11 -17 11 -37 1 -37 1 -37 8 -8
4 17 5 36 3 43 -4 13 -24 16 -35 5z"/>
<path d="M1513 575 c-27 -30 -46 -55 -42 -55 4 0 27 22 51 50 24 27 49 50 56
50 8 0 -7 -24 -32 -52 -25 -29 -46 -57 -46 -62 0 -6 21 -32 47 -58 31 -32 42
-48 31 -48 -9 0 -37 23 -62 51 -25 28 -46 47 -46 42 0 -16 95 -103 113 -103
24 0 21 13 -9 41 -14 13 -35 36 -46 52 l-19 27 45 52 c51 58 55 68 28 68 -10
0 -41 -25 -69 -55z"/>
<path d="M358 556 c-21 -18 -38 -38 -38 -43 0 -16 78 -83 95 -83 24 0 17 16
-21 50 l-37 32 39 39 c31 32 35 39 19 39 -11 -1 -37 -16 -57 -34z"/>
<path d="M2573 552 l37 -38 -35 -34 c-37 -36 -43 -50 -22 -50 16 0 97 68 97
81 0 16 -75 78 -95 79 -16 0 -13 -6 18 -38z"/>
<path d="M709 567 c-45 -35 -53 -114 -14 -152 27 -27 91 -35 113 -13 9 9 12 9
12 0 0 -7 9 -12 20 -12 19 0 20 7 20 95 0 88 -1 95 -20 95 -11 0 -20 -5 -20
-10 0 -7 -6 -7 -19 0 -26 13 -72 12 -92 -3z m99 -13 c20 -14 22 -14 22 0 0 9
5 16 10 16 6 0 10 -35 10 -85 0 -76 -10 -108 -23 -72 -4 10 -7 10 -18 0 -7 -7
-30 -13 -50 -13 -29 0 -43 6 -58 26 -44 56 -12 144 53 144 17 0 42 -7 54 -16z"/>
<path d="M716 528 c-9 -12 -16 -33 -16 -46 0 -26 41 -72 65 -72 24 0 65 46 65
72 0 31 -27 68 -48 67 -13 0 -12 -2 5 -9 41 -17 42 -89 2 -111 -45 -24 -91 27
-74 81 4 12 16 25 28 30 17 7 18 9 5 9 -9 1 -24 -9 -32 -21z"/>
<path d="M910 560 c-24 -24 -25 -43 -4 -64 22 -22 31 -20 11 2 -22 24 -21 35
1 55 25 23 75 21 97 -3 24 -27 11 -38 -17 -14 l-23 18 21 -23 c12 -13 27 -20
33 -17 31 19 -15 66 -64 66 -22 0 -43 -8 -55 -20z"/>
<path d="M1645 554 c-35 -38 -35 -105 0 -139 27 -27 91 -35 113 -13 9 9 12 9
12 0 0 -7 9 -12 20 -12 19 0 20 7 20 95 0 88 -1 95 -20 95 -11 0 -20 -5 -20
-10 0 -7 -6 -7 -19 0 -36 19 -80 12 -106 -16z m113 0 c20 -14 22 -14 22 0 0 9
5 16 10 16 6 0 10 -35 10 -85 0 -76 -10 -108 -23 -72 -4 10 -7 10 -18 0 -22
-21 -86 -16 -109 9 -28 30 -27 94 2 125 25 27 73 30 106 7z"/>
<path d="M1666 531 c-26 -28 -17 -79 17 -105 26 -19 30 -19 55 -5 37 20 51 63
31 97 -8 15 -24 28 -34 29 -18 3 -17 2 2 -6 43 -19 42 -93 -2 -113 -59 -27
-107 69 -53 106 12 9 18 16 12 16 -6 0 -19 -9 -28 -19z"/>
<path d="M1850 484 c0 -87 1 -94 20 -94 18 0 20 7 20 64 0 45 5 69 16 80 8 9
11 16 5 16 -19 0 -31 -38 -31 -94 0 -31 -4 -56 -10 -56 -6 0 -10 35 -10 85 0
50 4 85 10 85 6 0 10 -5 10 -10 0 -7 6 -7 19 0 34 18 78 12 95 -12 18 -25 23
-148 6 -148 -5 0 -10 25 -10 56 0 56 -12 94 -31 94 -6 0 -3 -7 5 -16 11 -11
16 -35 16 -80 0 -57 2 -64 20 -64 18 0 20 7 20 69 0 54 -4 74 -20 94 -19 24
-27 26 -85 25 l-65 -1 0 -93z"/>
<path d="M2253 565 c-20 -14 -50 -81 -41 -91 3 -2 10 14 17 36 6 22 20 44 31
50 29 15 76 12 91 -6 12 -15 11 -16 -11 -10 l-25 8 23 -17 c27 -20 30 -70 5
-97 -9 -10 -11 -18 -5 -18 34 0 43 133 10 151 -25 14 -71 11 -95 -6z"/>
<path d="M2383 574 c14 -5 17 -18 17 -89 0 -71 -3 -84 -17 -88 -13 -3 -12 -5
5 -6 22 -1 23 1 20 91 -3 84 -5 93 -23 95 -16 1 -16 1 -2 -3z"/>
<path d="M522 528 c7 -13 15 -48 18 -78 4 -47 8 -55 25 -55 16 0 20 7 21 35 1
35 1 35 -3 3 -7 -53 -33 -43 -33 12 0 41 -22 105 -36 105 -2 0 1 -10 8 -22z"/>
<path d="M2266 534 c-27 -27 -15 -114 16 -114 6 0 4 8 -5 18 -25 27 -22 78 5
96 12 9 17 16 11 16 -6 0 -19 -7 -27 -16z"/>
<path d="M934 513 c4 -4 26 -17 49 -28 68 -32 59 -85 -14 -85 -37 0 -85 30
-60 38 6 2 18 -4 27 -13 20 -20 53 -16 68 8 8 14 8 20 -4 27 -23 15 -36 12
-15 -3 10 -8 15 -19 11 -25 -10 -17 -41 -15 -56 3 -14 17 -50 20 -50 5 0 -5 9
-19 20 -30 27 -27 90 -27 115 0 29 33 13 64 -47 89 -28 12 -48 18 -44 14z"/>
<path d="M2220 452 c0 -7 11 -24 25 -37 28 -29 81 -33 111 -9 18 15 18 15 -3
5 -48 -24 -97 -10 -121 34 -6 11 -12 14 -12 7z"/>
</g>
</svg>
